<?xml version="1.0" standalone="no"?>
<!DOCTYPE svg PUBLIC "-//W3C//DTD SVG 20010904//EN"
 "http://www.w3.org/TR/2001/REC-SVG-20010904/DTD/svg10.dtd">
<svg version="1.0" xmlns="http://www.w3.org/2000/svg"
 width="267.000000pt" height="165.000000pt" viewBox="0 0 267.000000 165.000000"
 preserveAspectRatio="xMidYMid meet">

<g transform="translate(0.000000,165.000000) scale(0.100000,-0.100000)"
fill="#000000" stroke="none">
<path d="M116 1488 c-3 -13 -6 -33 -6 -45 0 -12 -4 -23 -9 -25 -5 -1 -11 -14
-13 -28 -1 -14 -7 -28 -12 -32 -6 -4 -4 -13 4 -22 7 -9 10 -19 7 -23 -4 -3 -2
-12 4 -20 8 -9 8 -13 1 -13 -7 0 -4 -12 6 -30 15 -26 22 -30 64 -30 25 0 55
-2 65 -5 10 -3 3 2 -16 10 -18 9 -31 18 -29 20 2 3 40 -2 83 -10 44 -9 85 -13
92 -11 6 3 14 0 16 -7 3 -9 9 -9 24 -1 11 7 31 10 46 7 16 -3 27 -1 27 5 0 14
-57 29 -235 62 -100 19 -111 22 -97 27 7 3 85 -9 173 -27 152 -30 192 -32 159
-9 -13 9 -12 10 2 5 9 -3 27 3 39 12 21 18 20 18 -62 61 -46 24 -97 53 -114
65 -54 40 -105 68 -128 70 -12 2 -36 6 -53 10 -27 6 -32 4 -38 -16z m187 -245
c-7 -2 -21 -2 -30 0 -10 3 -4 5 12 5 17 0 24 -2 18 -5z m44 -9 c-3 -3 -12 -4
-19 -1 -8 3 -5 6 6 6 11 1 17 -2 13 -5z"/>
<path d="M543 1283 c-18 -38 -17 -43 15 -43 15 0 34 -5 42 -10 10 -7 -2 -9
-40 -7 -46 2 -55 -1 -58 -17 -3 -15 0 -18 17 -13 13 3 19 1 15 -5 -4 -6 2 -8
16 -3 15 5 20 4 16 -4 -4 -6 -21 -11 -37 -11 -17 0 -28 -4 -25 -9 3 -5 16 -8
29 -8 31 0 145 -35 131 -40 -6 -2 -39 3 -74 11 -38 9 -70 12 -79 6 -11 -6 -4
-11 29 -19 25 -6 58 -18 73 -26 16 -8 33 -15 39 -15 6 0 18 -10 28 -23 10 -12
35 -28 56 -36 21 -7 45 -21 55 -30 10 -9 67 -43 129 -76 245 -132 543 -316
685 -420 17 -12 37 -22 45 -23 8 0 24 -3 34 -8 15 -5 17 -4 11 6 -5 9 -4 11 4
6 6 -4 8 -12 5 -18 -5 -7 -2 -9 8 -6 8 4 28 -3 44 -13 34 -23 76 -43 87 -41 4
1 7 -2 7 -8 0 -11 79 -54 86 -47 3 3 18 -9 35 -25 31 -32 52 -32 28 -1 -11 15
-10 15 9 -1 12 -11 22 -16 22 -13 0 10 91 -49 128 -83 18 -16 37 -30 43 -30 5
0 18 -9 29 -20 11 -11 20 -18 20 -15 0 3 15 -2 33 -11 31 -16 32 -16 15 2 -9
11 -16 22 -15 26 4 13 -67 58 -82 53 -9 -3 -12 -3 -8 1 4 4 -2 13 -13 21 -11
8 -20 19 -20 25 0 7 4 7 13 0 26 -21 109 -63 114 -58 10 10 -17 34 -60 54 -23
11 -51 28 -62 37 -19 15 -18 15 10 2 52 -25 79 -31 69 -16 -4 7 18 -1 49 -19
65 -37 81 -41 43 -11 -30 24 -26 39 11 39 24 0 23 2 -18 33 -48 35 -99 61
-107 53 -2 -3 14 -13 37 -22 22 -9 41 -20 41 -25 0 -5 -39 12 -87 37 -109 58
-201 104 -232 115 -13 5 -22 12 -19 14 3 3 25 -4 51 -15 25 -11 53 -17 63 -13
12 4 15 3 10 -5 -4 -7 -4 -13 1 -13 4 -1 20 -3 35 -4 15 -2 37 -9 49 -15 15
-8 19 -9 15 -1 -4 6 -2 11 4 11 6 0 13 -7 17 -16 3 -9 12 -13 21 -9 9 3 13 3
9 -1 -10 -10 110 -77 124 -69 10 7 -24 44 -58 64 -15 8 -15 10 -3 11 9 0 25
-7 38 -15 12 -9 39 -18 59 -21 l38 -4 -25 17 c-14 10 -29 18 -35 19 -5 0 -16
2 -23 2 -7 1 -10 7 -7 13 4 6 1 9 -6 8 -23 -5 -109 33 -102 44 4 6 0 8 -10 4
-9 -3 -19 -2 -22 3 -3 5 -86 35 -185 66 -99 32 -178 60 -175 62 5 5 101 -24
264 -79 62 -22 122 -37 132 -34 17 6 23 -2 21 -25 0 -3 18 -4 41 -4 23 1 68
-7 100 -19 57 -20 58 -20 72 -1 8 10 15 29 15 41 0 18 -9 24 -42 33 -62 17
-136 40 -188 58 -25 9 -48 16 -52 14 -5 -1 -8 3 -8 9 0 5 -16 17 -36 25 -20 8
-34 17 -31 20 6 6 185 -52 285 -92 98 -39 110 -21 16 24 -43 21 -98 44 -122
52 -23 7 -40 15 -38 17 3 3 76 -15 179 -45 13 -3 15 -7 7 -12 -8 -5 -7 -9 4
-13 9 -4 16 -2 16 4 0 6 6 6 18 1 9 -5 30 -12 46 -16 l30 -7 -25 20 -24 20 34
1 c29 0 32 2 21 15 -10 12 -10 15 1 15 23 1 -45 27 -87 34 -22 4 -73 18 -114
31 l-75 24 53 -4 c29 -3 62 -10 73 -16 11 -6 27 -8 34 -5 7 2 19 -2 25 -10 7
-8 22 -14 34 -14 20 0 20 1 -4 20 l-25 20 25 -8 c14 -5 37 -12 51 -15 24 -6
26 -5 25 33 -1 38 -3 40 -33 40 -17 0 -38 6 -45 13 -7 7 -21 16 -30 20 -27 10
-22 30 5 22 22 -7 22 -7 2 9 -11 8 -28 16 -37 16 -9 0 -20 5 -23 11 -4 6 -14
8 -22 5 -8 -3 -12 -2 -9 3 3 5 -9 11 -27 14 -72 13 -143 30 -161 39 -10 5 -39
11 -64 14 -24 2 -51 9 -58 15 -8 6 -21 9 -29 5 -10 -3 -14 -2 -9 5 4 7 -3 10
-17 8 -13 -1 -35 3 -49 8 -15 6 -57 14 -95 18 -39 4 -104 14 -145 22 -41 8
-88 16 -105 18 -29 4 -77 16 -195 48 -30 8 -75 18 -100 22 -25 4 -70 13 -100
21 -56 14 -301 62 -355 69 -41 6 -263 78 -302 99 -40 20 -36 21 -50 -11z m197
-82 c32 -10 31 -10 -15 -5 -27 3 -57 10 -65 15 -18 12 25 6 80 -10z m169 -26
c86 -16 98 -20 84 -28 -13 -7 -213 34 -213 44 0 5 10 7 23 4 12 -2 60 -11 106
-20z m-234 -25 c7 -12 -12 -12 -40 0 -18 8 -17 9 7 9 15 1 30 -3 33 -9z m52
-16 c-3 -3 -12 -4 -19 -1 -8 3 -5 6 6 6 11 1 17 -2 13 -5z m168 -29 c66 -14
154 -32 195 -41 41 -9 82 -20 90 -26 12 -8 11 -8 -3 -4 -10 3 -37 9 -60 12
-129 18 -380 78 -347 83 3 1 59 -10 125 -24z m-195 5 c0 -5 -2 -10 -4 -10 -3
0 -8 5 -11 10 -3 6 -1 10 4 10 6 0 11 -4 11 -10z m278 -57 c245 -53 274 -61
247 -62 -22 -1 -206 36 -365 74 -58 13 -109 25 -113 25 -5 0 -5 5 -2 10 4 6
11 7 17 4 5 -3 103 -26 216 -51z m-235 -6 c-3 -5 0 -7 8 -5 8 3 28 0 45 -7 17
-7 50 -16 72 -20 23 -4 52 -16 64 -27 21 -18 21 -19 3 -13 -11 4 -33 11 -50
15 -52 12 -180 53 -187 59 -4 3 6 6 22 7 17 1 27 -3 23 -9z m492 -17 c13 -6
15 -9 5 -9 -8 0 -22 4 -30 9 -18 12 -2 12 25 0z m-265 -14 c30 -12 31 -14 10
-19 -12 -3 -19 -3 -16 1 4 3 -4 12 -16 19 -30 16 -18 16 22 -1z m-25 -76 c72
-29 131 -53 133 -55 2 -1 -4 -5 -13 -9 -11 -4 -14 -2 -9 6 5 7 2 9 -9 5 -9 -3
-44 8 -78 24 -35 17 -87 40 -116 51 -29 10 -56 24 -59 30 -5 7 -2 9 7 6 8 -4
73 -30 144 -58z m85 56 c0 -2 -7 -7 -16 -10 -8 -3 -12 -2 -9 4 6 10 25 14 25
6z m55 -14 c-3 -3 -11 0 -18 7 -9 10 -8 11 6 5 10 -3 15 -9 12 -12z m58 -9
c-7 -2 -19 -2 -25 0 -7 3 -2 5 12 5 14 0 19 -2 13 -5z m-83 -23 c10 -5 28 -10
39 -10 12 0 21 -4 21 -9 0 -4 20 -11 45 -14 47 -5 63 -12 52 -23 -3 -3 -21 -1
-39 5 -18 6 -52 12 -75 13 -22 2 -39 7 -36 12 3 4 -5 5 -17 1 -14 -5 -20 -3
-16 3 3 6 -1 8 -12 5 -10 -2 -28 5 -40 16 l-23 19 41 -4 c22 -2 49 -8 60 -14z
m147 14 c-3 -3 -12 -4 -19 -1 -8 3 -5 6 6 6 11 1 17 -2 13 -5z m3 -34 c11 -8
7 -9 -15 -4 -37 8 -45 14 -19 14 10 0 26 -5 34 -10z m137 4 c-3 -3 -12 -4 -19
-1 -8 3 -5 6 6 6 11 1 17 -2 13 -5z m88 -14 c3 -5 1 -10 -4 -10 -6 0 -11 5
-11 10 0 6 2 10 4 10 3 0 8 -4 11 -10z m55 -10 c18 -12 2 -12 -25 0 -13 6 -15
9 -5 9 8 0 22 -4 30 -9z m-178 -34 c35 -14 83 -30 107 -36 23 -6 41 -14 38
-17 -8 -7 -227 60 -227 70 0 12 16 8 82 -17z m-117 -4 c-3 -3 -11 0 -18 7 -9
10 -8 11 6 5 10 -3 15 -9 12 -12z m390 8 c3 -6 -1 -7 -9 -4 -18 7 -21 14 -7
14 6 0 13 -4 16 -10z m-315 -30 c18 -12 2 -12 -25 0 -13 6 -15 9 -5 9 8 0 22
-4 30 -9z m-44 -39 c38 -16 95 -40 126 -55 30 -14 60 -26 66 -26 7 0 12 -4 12
-10 0 -13 -1 -13 -43 5 -43 18 -61 19 -51 3 4 -7 3 -8 -5 -4 -6 4 -9 11 -7 15
5 8 -154 88 -166 84 -5 -2 -8 2 -8 7 0 13 -6 14 76 -19z m124 9 c8 -5 11 -10
5 -10 -5 0 -17 5 -25 10 -8 5 -10 10 -5 10 6 0 17 -5 25 -10z m250 -36 c55
-20 22 -16 -45 6 -33 11 -44 17 -25 13 19 -3 50 -11 70 -19z m-190 -14 c36
-13 69 -27 74 -31 14 -12 -73 16 -124 40 -52 25 -40 23 50 -9z m630 20 l25 -8
-25 0 c-14 0 -34 3 -45 8 l-20 9 20 -1 c11 0 31 -4 45 -8z m375 0 c8 -13 -5
-13 -25 0 -13 8 -13 10 2 10 9 0 20 -4 23 -10z m-748 -26 c-3 -3 -12 -4 -19
-1 -8 3 -5 6 6 6 11 1 17 -2 13 -5z m503 -4 c19 -5 52 -11 73 -13 43 -5 63
-17 26 -17 -32 1 -180 38 -154 39 11 1 36 -3 55 -9z m315 0 c3 -6 -1 -7 -9 -4
-18 7 -21 14 -7 14 6 0 13 -4 16 -10z m-674 -36 c42 -12 91 -30 108 -39 17 -8
37 -13 43 -9 6 4 8 3 4 -4 -4 -7 3 -10 18 -9 26 2 37 -14 15 -22 -6 -2 -9 1
-5 7 3 5 -4 10 -17 10 -22 0 -98 24 -129 42 -9 5 -45 16 -80 25 -34 9 -70 21
-78 26 -19 12 21 3 121 -27z m740 9 c12 -16 12 -17 -2 -6 -9 7 -19 10 -22 6
-4 -3 -7 -1 -7 5 0 17 16 15 31 -5z m-971 -23 c8 -5 11 -10 5 -10 -5 0 -17 5
-25 10 -8 5 -10 10 -5 10 6 0 17 -5 25 -10z m530 -4 c25 -8 36 -15 25 -15 -21
1 -98 27 -80 28 6 0 30 -6 55 -13z m-705 -14 c-3 -3 -11 0 -18 7 -9 10 -8 11
6 5 10 -3 15 -9 12 -12z m795 -12 c18 -12 2 -12 -25 0 -13 6 -15 9 -5 9 8 0
22 -4 30 -9z m-440 -31 c10 -6 4 -7 -15 -3 -16 4 -37 11 -45 15 -10 6 -4 7 15
3 17 -4 37 -11 45 -15z m-70 -9 c8 -5 11 -10 5 -10 -5 0 -17 5 -25 10 -8 5
-10 10 -5 10 6 0 17 -5 25 -10z m120 -10 c8 -5 11 -10 5 -10 -5 0 -17 5 -25
10 -8 5 -10 10 -5 10 6 0 17 -5 25 -10z m-110 -26 l25 -15 -25 7 c-14 3 -29
10 -34 15 -16 14 6 10 34 -7z m443 -11 c15 -7 27 -15 27 -18 0 -4 -92 35 -100
43 -8 8 43 -9 73 -25z m-223 -48 c14 -8 21 -14 15 -14 -5 0 -21 6 -35 14 -14
8 -20 14 -15 14 6 0 21 -6 35 -14z m88 -32 c12 -3 22 -9 22 -14 0 -13 -11 -10
-50 12 -19 11 -26 17 -15 13 11 -3 30 -9 43 -11z m432 -15 c25 -11 40 -22 33
-25 -6 -2 -38 10 -70 27 -62 33 -38 31 37 -2z m-372 -17 c3 -8 -1 -12 -9 -9
-7 2 -15 10 -17 17 -3 8 1 12 9 9 7 -2 15 -10 17 -17z m-258 -17 c0 -2 -9 0
-20 6 -11 6 -20 13 -20 16 0 2 9 0 20 -6 11 -6 20 -13 20 -16z m88 -33 c11 -7
11 -9 -1 -14 -16 -6 -27 0 -27 15 0 10 11 10 28 -1z m72 -35 c0 -2 -7 -7 -16
-10 -8 -3 -12 -2 -9 4 6 10 25 14 25 6z m90 -42 c25 -13 34 -22 21 -18 -28 7
-92 44 -76 44 6 -1 30 -12 55 -26z m110 -24 c22 -11 40 -23 40 -25 0 -5 -79
32 -89 41 -11 10 14 2 49 -16z"/>
<path d="M250 1209 c0 -8 -14 -10 -42 -6 -34 5 -38 4 -19 -4 19 -7 129 -2 119
6 -13 10 -58 13 -58 4z"/>
<path d="M328 1193 c6 -2 18 -2 25 0 6 3 1 5 -13 5 -14 0 -19 -2 -12 -5z"/>
<path d="M290 1180 c0 -5 5 -10 11 -10 5 0 7 5 4 10 -3 6 -8 10 -11 10 -2 0
-4 -4 -4 -10z"/>
<path d="M387 1160 c13 -13 56 -23 49 -12 -3 5 -17 12 -32 15 -14 2 -22 1 -17
-3z"/>
<path d="M2565 670 c3 -5 11 -10 16 -10 6 0 7 5 4 10 -3 6 -11 10 -16 10 -6 0
-7 -4 -4 -10z"/>
<path d="M1720 436 c0 -2 8 -10 18 -17 15 -13 16 -12 3 4 -13 16 -21 21 -21
13z"/>
<path d="M1711 407 c15 -14 59 -47 100 -72 40 -26 79 -53 87 -61 15 -16 26
-19 17 -5 -5 9 -184 138 -215 155 -8 5 -3 -3 11 -17z"/>
<path d="M1800 384 c0 -9 33 -33 44 -34 6 0 0 9 -12 20 -22 21 -32 25 -32 14z"/>
<path d="M1870 335 c0 -2 10 -10 23 -16 20 -11 21 -11 8 4 -13 16 -31 23 -31
12z"/>
<path d="M1935 300 c6 -10 105 -64 105 -57 0 5 -99 67 -106 67 -3 0 -2 -5 1
-10z"/>
</g>
</svg>
