<?xml version="1.0" standalone="no"?>
<!DOCTYPE svg PUBLIC "-//W3C//DTD SVG 20010904//EN"
 "http://www.w3.org/TR/2001/REC-SVG-20010904/DTD/svg10.dtd">
<svg version="1.0" xmlns="http://www.w3.org/2000/svg"
 width="800.000000pt" height="776.000000pt" viewBox="0 0 800.000000 776.000000"
 preserveAspectRatio="xMidYMid meet">

<g transform="translate(0.000000,776.000000) scale(0.100000,-0.100000)"
fill="#000000" stroke="none">
<path d="M4003 7514 c-216 -323 -390 -617 -519 -876 -43 -87 -82 -158 -85
-158 -4 0 -22 26 -39 58 -18 31 -62 100 -98 152 -341 490 -854 800 -1326 800
-68 0 -160 -21 -171 -40 -3 -5 22 -46 54 -92 170 -237 261 -455 261 -629 0
-68 -26 -228 -38 -241 -4 -4 -42 39 -85 97 -300 402 -726 691 -1157 785 -219
48 -428 46 -534 -4 -86 -41 -85 -36 -29 -113 127 -173 238 -393 312 -617 90
-276 117 -454 131 -851 13 -402 36 -587 105 -853 153 -584 458 -1019 843
-1200 l80 -38 -61 -39 c-241 -156 -412 -379 -425 -553 -3 -53 0 -83 14 -121
10 -28 21 -50 24 -48 93 53 150 71 231 75 159 8 319 -54 566 -219 143 -95 235
-142 356 -183 232 -77 490 -78 648 -2 l51 25 57 -38 c31 -21 129 -82 219 -136
189 -114 264 -184 330 -313 88 -171 121 -318 129 -568 8 -264 -18 -458 -94
-683 -56 -170 -182 -400 -237 -436 -44 -29 -229 -48 -461 -47 -121 1 -258 -2
-305 -6 -82 -7 -85 -8 -107 -41 -41 -60 -30 -112 30 -142 38 -20 53 -21 381
-17 382 4 391 6 510 82 238 152 376 437 432 892 9 75 18 254 21 426 l6 298 22
0 c12 0 37 -10 56 -23 l34 -23 3 -114 c4 -137 -13 -425 -34 -588 -23 -179 -49
-296 -98 -438 -57 -164 -67 -187 -117 -255 -39 -55 -40 -57 -26 -90 8 -19 37
-55 64 -81 48 -44 53 -46 127 -53 42 -4 145 -4 229 1 84 4 267 6 407 5 141 -1
284 2 319 8 78 13 113 40 109 85 -6 57 -4 57 -550 49 -562 -7 -535 -11 -480
69 156 228 241 656 257 1298 7 256 20 337 70 438 90 179 259 316 466 376 l82
23 51 -23 c131 -59 442 -80 611 -40 200 46 366 133 542 282 189 161 369 247
517 247 56 0 125 -30 209 -89 26 -19 49 -34 51 -34 1 0 11 29 21 66 13 47 16
87 13 142 -10 158 -80 287 -244 449 l-113 112 81 78 c336 326 577 774 658
1227 44 240 46 439 10 946 -15 207 -12 454 5 556 43 246 185 532 364 738 34
38 61 73 61 77 0 15 -45 40 -110 61 -123 40 -385 24 -592 -36 -407 -118 -805
-435 -1053 -839 -27 -42 -49 -76 -51 -74 -13 13 -35 224 -35 345 -1 217 37
372 146 599 29 62 51 114 47 117 -31 18 -175 38 -242 33 -198 -13 -511 -161
-750 -354 -113 -92 -306 -294 -399 -420 l-84 -112 -72 153 c-156 332 -309 605
-436 777 l-67 91 -99 -148z m-1803 -266 c323 -102 688 -452 980 -941 61 -103
64 -72 -30 -302 -189 -460 -281 -858 -281 -1213 0 -425 103 -801 295 -1082 28
-41 54 -80 59 -87 10 -16 -115 27 -206 71 -253 122 -484 360 -650 667 -186
345 -266 771 -238 1264 13 217 31 344 66 465 38 131 74 313 87 443 25 258 -37
536 -155 690 -21 26 -37 49 -37 51 0 6 34 -3 110 -26z m3634 -100 c-64 -161
-77 -225 -78 -403 0 -127 4 -185 22 -280 33 -174 97 -446 147 -628 70 -249 96
-444 110 -797 21 -512 -110 -869 -432 -1180 -178 -173 -366 -274 -588 -315
-134 -25 -133 -27 -58 95 81 132 208 385 233 466 69 225 60 1064 -16 1391 -46
201 -171 528 -299 783 l-74 148 54 87 c83 132 171 239 292 356 203 196 417
314 640 353 43 7 79 12 80 12 1 -1 -14 -40 -33 -88z m-1649 -40 c429 -658 718
-1353 820 -1971 78 -470 49 -827 -88 -1110 -176 -362 -442 -564 -768 -584
-302 -18 -580 113 -786 373 -159 199 -244 403 -278 661 -76 578 184 1399 733
2313 115 191 274 440 282 440 3 0 41 -55 85 -122z m3232 15 c-119 -148 -192
-284 -247 -460 -65 -211 -72 -361 -40 -878 29 -462 25 -590 -21 -825 -75 -377
-296 -783 -568 -1043 -149 -142 -300 -223 -472 -253 -102 -17 -166 -14 -286
13 l-72 16 82 87 c236 247 382 577 433 973 13 102 15 179 11 342 -7 288 -40
524 -123 882 l-35 153 55 108 c182 356 458 644 776 811 161 84 352 138 498
140 l63 1 -54 -67z m-6627 -3 c120 -26 198 -53 328 -115 297 -142 585 -392
805 -700 l36 -50 -29 -185 c-45 -296 -53 -416 -47 -663 3 -122 13 -271 21
-332 69 -488 225 -882 455 -1150 l52 -60 -43 -13 c-117 -35 -301 -34 -424 3
-403 119 -818 631 -959 1182 -36 142 -53 297 -59 559 -16 657 -135 1150 -358
1483 l-50 74 94 -7 c51 -4 131 -15 178 -26z m1947 -3529 c109 -55 266 -115
370 -141 l43 -11 -55 -78 c-30 -43 -67 -105 -81 -136 -26 -56 -27 -63 -21
-184 3 -69 13 -151 21 -181 17 -65 18 -63 -76 -85 -232 -53 -554 29 -768 195
-241 188 -430 262 -592 232 -34 -6 -64 -10 -66 -8 -8 8 49 105 92 158 53 65
183 166 285 221 l71 38 107 -22 c87 -17 126 -20 200 -15 85 6 279 47 313 67
25 14 35 11 157 -50z m3745 -97 c28 -14 72 -48 98 -75 44 -46 110 -153 110
-178 0 -7 -26 -11 -72 -11 -105 0 -188 -23 -313 -85 -101 -50 -153 -85 -350
-240 -91 -72 -224 -140 -322 -166 -61 -16 -108 -20 -213 -20 -115 0 -295 21
-320 36 -4 2 3 26 16 52 39 78 56 183 52 306 -4 99 -7 113 -40 176 l-35 69 59
27 c32 15 98 34 145 42 81 15 92 15 172 -2 49 -10 147 -20 227 -23 156 -5 252
10 514 82 155 43 204 44 272 10z m-3012 -163 c74 -26 195 -56 305 -76 123 -23
445 -31 570 -15 106 13 294 56 389 89 33 12 65 21 73 21 22 0 88 -66 116 -117
34 -64 50 -164 37 -234 -24 -128 -106 -227 -239 -290 -172 -81 -193 -93 -255
-140 -79 -60 -117 -107 -167 -209 -61 -127 -139 -200 -211 -200 -80 0 -165 65
-246 186 -55 82 -129 147 -299 261 -155 103 -225 170 -269 254 -27 50 -29 62
-29 169 0 108 2 119 31 181 34 71 94 139 122 139 10 0 42 -9 72 -19z"/>
</g>
</svg>
