<svg id="svg" version="1.1" xmlns="http://www.w3.org/2000/svg" xmlns:xlink="http://www.w3.org/1999/xlink" width="400" height="412.9032258064516" viewBox="0, 0, 400,412.9032258064516"><g id="svgg"><path id="path0" d="M203.580 17.360 C 203.296 17.737,201.390 20.585,199.345 23.690 C 186.110 43.779,177.558 58.597,170.496 73.672 L 170.032 74.663 168.253 71.656 C 152.316 44.718,128.376 27.516,103.591 25.191 C 98.077 24.674,94.370 25.049,91.079 26.455 C 89.894 26.961,89.877 26.819,91.354 28.739 C 101.140 41.466,106.626 54.533,105.952 63.508 C 105.730 66.462,104.249 74.597,103.933 74.597 C 103.898 74.597,103.092 73.485,102.143 72.127 C 90.561 55.547,75.141 42.666,58.275 35.483 C 41.221 28.218,21.435 26.963,14.459 32.704 L 13.898 33.165 15.413 35.151 C 29.921 54.171,37.882 79.803,37.902 107.560 C 37.938 157.165,57.450 197.501,86.988 209.032 L 87.987 209.422 86.714 210.205 C 70.934 219.909,61.332 234.372,64.602 243.511 C 65.797 246.851,65.779 246.833,67.014 245.983 C 76.253 239.627,88.561 242.129,105.040 253.714 C 121.241 265.104,140.732 268.518,153.984 262.289 L 156.053 261.316 157.613 262.389 C 159.368 263.596,165.506 267.394,171.935 271.250 C 178.251 275.038,180.531 277.076,183.584 281.661 C 197.176 302.078,194.032 343.436,177.209 365.536 L 175.952 367.187 170.183 367.078 C 164.252 366.965,164.604 367.000,154.738 365.579 C 142.349 363.795,132.560 367.777,132.115 374.779 C 131.856 378.865,138.550 381.121,151.736 381.392 C 178.790 381.946,193.044 368.566,198.064 337.903 C 199.445 329.471,199.808 323.886,199.939 309.022 L 200.049 296.573 200.824 296.573 C 202.589 296.573,205.023 297.998,205.790 299.481 C 206.387 300.635,205.953 315.748,205.028 326.008 C 203.176 346.555,199.199 360.477,193.011 368.074 L 192.097 369.197 192.833 370.685 C 193.738 372.517,195.232 374.747,196.515 376.180 L 197.480 377.260 208.770 377.299 C 217.498 377.329,220.256 377.399,220.920 377.606 C 223.928 378.542,227.320 371.807,225.294 368.921 C 223.833 366.840,224.260 366.865,211.935 368.145 C 206.596 368.700,202.173 369.153,202.105 369.153 C 202.038 369.153,202.255 368.809,202.589 368.388 C 210.684 358.166,215.284 335.487,215.927 302.621 C 216.224 287.444,217.687 282.774,224.547 275.101 C 230.300 268.666,243.402 261.989,246.837 263.742 C 254.567 267.685,269.573 268.629,280.251 265.843 C 289.122 263.529,296.771 259.350,304.637 252.520 C 313.237 245.053,321.392 241.047,328.938 240.582 C 331.918 240.399,334.357 241.377,339.421 244.784 C 340.924 245.795,342.183 246.589,342.219 246.547 C 342.335 246.413,343.118 243.896,343.591 242.137 C 346.145 232.647,338.530 218.168,326.586 209.802 L 326.121 209.477 327.929 207.835 C 346.294 191.160,358.865 168.052,362.792 143.750 C 364.420 133.679,364.509 125.297,363.205 104.940 C 361.759 82.350,361.878 77.138,364.042 68.494 C 367.064 56.425,373.818 44.291,382.960 34.506 L 384.166 33.216 383.464 32.623 C 377.819 27.853,361.947 27.946,347.230 32.835 C 327.499 39.390,309.535 54.326,297.921 73.834 C 297.013 75.359,296.220 76.609,296.160 76.610 C 295.786 76.620,294.672 69.356,294.337 64.735 C 293.430 52.176,295.678 41.763,302.086 28.840 C 303.101 26.794,303.958 25.059,303.990 24.985 C 304.350 24.158,293.434 22.577,290.881 23.087 C 269.769 27.307,249.621 41.648,234.173 63.453 C 233.065 65.018,232.098 66.238,232.025 66.163 C 231.953 66.089,230.831 63.715,229.533 60.887 C 220.911 42.104,212.442 27.351,204.316 16.958 C 204.137 16.728,204.001 16.803,203.580 17.360 M109.114 35.971 C 126.439 40.420,144.800 57.739,160.459 84.401 C 162.196 87.359,162.227 86.529,160.202 91.293 C 153.173 107.833,148.388 122.802,145.948 135.887 C 140.802 163.482,146.200 192.298,160.013 210.975 C 161.487 212.968,161.807 213.511,161.449 213.409 C 133.174 205.401,112.391 176.164,108.564 139.012 C 107.099 124.789,108.357 103.076,111.187 93.750 C 118.518 69.585,117.117 48.987,107.318 36.845 C 106.624 35.985,106.142 35.282,106.245 35.282 C 106.349 35.282,107.640 35.592,109.114 35.971 M288.979 39.768 C 284.143 50.523,283.126 60.152,285.406 73.589 C 286.804 81.828,290.848 99.393,292.727 105.386 C 297.020 119.082,299.410 145.392,297.686 159.980 C 294.046 190.785,271.866 214.283,243.261 217.640 L 242.066 217.780 242.443 217.206 C 256.467 195.908,262.413 179.174,262.027 162.097 C 261.396 134.218,253.504 105.392,239.231 78.840 L 238.098 76.732 239.032 75.110 C 251.266 53.852,271.884 38.491,289.753 37.320 C 290.022 37.303,289.865 37.798,288.979 39.768 M206.803 41.482 C 235.023 84.439,250.012 126.687,250.023 163.306 C 250.029 182.447,244.355 197.465,232.592 209.444 C 210.206 232.243,174.458 222.757,159.766 190.119 C 146.997 161.753,156.024 118.762,185.666 66.776 C 191.110 57.227,203.485 37.500,204.030 37.500 C 204.116 37.500,205.364 39.292,206.803 41.482 M367.809 39.795 C 367.606 40.060,366.803 40.989,366.024 41.862 C 357.790 51.090,352.530 63.106,350.670 76.939 C 350.247 80.085,350.198 90.379,350.577 96.573 C 350.710 98.735,351.041 103.997,351.313 108.266 C 352.252 122.977,352.406 128.901,352.006 134.983 C 350.862 152.380,345.428 168.172,335.391 183.266 C 319.834 206.662,302.677 215.396,283.319 209.773 L 282.262 209.466 285.143 206.598 C 297.612 194.186,305.146 177.397,307.600 156.552 C 308.050 152.729,308.115 138.084,307.702 133.468 C 306.616 121.325,304.782 110.505,301.389 96.229 L 300.181 91.147 301.684 88.063 C 315.427 59.876,339.894 41.008,364.617 39.532 C 366.058 39.446,367.450 39.362,367.708 39.345 C 368.173 39.315,368.175 39.320,367.809 39.795 M35.715 41.739 C 58.799 44.024,81.417 58.994,98.929 83.579 L 99.942 85.000 99.364 88.518 C 98.123 96.070,97.078 104.021,96.329 111.593 C 95.759 117.351,96.041 130.850,96.896 138.810 C 99.632 164.266,108.007 185.776,120.579 199.639 L 121.988 201.193 120.319 201.700 C 100.159 207.820,79.078 195.852,63.034 169.180 C 53.587 153.475,50.254 140.678,49.796 118.347 C 49.071 83.052,43.142 59.848,30.268 41.917 C 29.933 41.451,32.088 41.380,35.715 41.739 M134.054 212.678 C 141.012 216.543,149.673 220.018,155.746 221.381 C 156.855 221.630,157.796 221.862,157.839 221.897 C 157.881 221.932,157.146 222.985,156.206 224.236 C 153.114 228.354,150.936 232.175,150.308 234.586 C 149.570 237.420,150.344 247.606,151.603 251.621 C 151.827 252.337,152.012 252.942,152.014 252.965 C 152.015 252.988,151.300 253.233,150.426 253.509 C 138.126 257.394,120.122 253.226,109.067 243.935 C 98.645 235.174,87.435 231.366,79.417 233.861 C 77.853 234.348,77.843 234.339,78.416 232.911 C 80.985 226.507,88.790 219.240,98.156 214.531 C 100.167 213.520,99.774 213.513,105.354 214.665 C 113.343 216.315,122.354 215.246,131.836 211.524 C 131.881 211.506,132.879 212.026,134.054 212.678 M317.039 218.146 C 322.163 219.456,327.013 224.380,329.705 231.005 L 330.219 232.272 329.475 232.121 C 321.381 230.484,308.107 236.044,296.976 245.736 C 290.711 251.190,284.194 254.646,276.892 256.385 C 271.728 257.615,255.233 256.761,252.388 255.116 C 252.315 255.074,252.698 254.155,253.239 253.074 C 257.146 245.273,257.018 233.242,252.963 227.220 C 252.085 225.917,252.072 225.942,254.111 224.993 C 259.816 222.337,265.928 221.360,270.076 222.441 C 274.473 223.588,283.676 224.296,287.975 223.818 C 292.063 223.364,304.368 220.552,311.794 218.376 C 314.243 217.658,315.001 217.625,317.039 218.146 M176.310 228.125 C 196.101 233.970,216.525 233.591,235.276 227.033 L 238.193 226.013 239.273 226.666 C 241.739 228.158,244.036 231.256,245.138 234.577 C 248.515 244.753,242.681 254.889,231.149 258.882 C 223.882 261.398,216.879 267.387,214.203 273.375 C 209.080 284.837,202.474 287.143,195.215 280.005 C 193.969 278.779,193.692 278.407,191.418 274.899 C 189.075 271.285,183.462 266.434,176.512 262.017 C 171.017 258.525,170.305 258.018,168.612 256.393 C 163.199 251.196,161.174 245.306,162.376 238.254 C 163.265 233.036,165.920 228.381,169.017 226.613 L 170.026 226.037 171.656 226.634 C 172.553 226.963,174.647 227.633,176.310 228.125 M242.178 365.347 C 232.240 366.664,228.779 371.774,235.877 374.648 C 236.984 375.096,237.101 375.101,246.875 375.101 L 256.754 375.101 257.903 374.537 C 261.258 372.889,260.615 368.513,256.738 366.616 C 254.109 365.330,246.989 364.710,242.178 365.347 M164.004 371.018 C 163.647 372.671,162.470 374.045,160.706 374.868 C 159.813 375.284,159.474 375.303,151.564 375.362 L 143.349 375.424 142.844 374.919 C 142.224 374.299,142.170 373.237,142.724 372.553 L 143.109 372.077 151.343 371.956 C 160.010 371.829,161.232 371.709,163.020 370.806 C 164.105 370.258,164.165 370.271,164.004 371.018 M239.415 379.916 C 234.782 381.405,232.379 386.023,235.737 386.986 C 238.341 387.734,261.940 388.110,263.565 387.430 C 266.857 386.052,266.776 382.048,263.420 380.277 L 262.399 379.738 251.310 379.698 C 242.740 379.667,240.039 379.716,239.415 379.916 M197.559 381.945 C 194.544 382.777,192.137 385.308,192.137 387.647 C 192.137 392.865,217.422 393.359,222.749 388.246 C 225.082 386.007,223.921 383.031,220.293 381.953 C 218.924 381.547,199.030 381.540,197.559 381.945 M175.440 383.890 C 173.919 384.122,169.725 385.208,166.586 386.183 C 160.614 388.038,158.028 388.186,153.498 386.936 C 147.789 385.360,144.294 385.462,140.388 387.318 C 137.085 388.887,137.348 391.935,140.787 391.935 C 142.201 391.935,145.467 392.509,150.455 393.634 C 158.127 395.364,160.203 395.479,167.156 394.564 C 168.886 394.337,171.744 394.063,173.507 393.957 C 175.271 393.851,177.168 393.639,177.723 393.486 C 187.197 390.874,185.183 382.406,175.440 383.890 M198.085 394.282 C 197.863 394.341,196.375 394.744,194.778 395.178 C 193.156 395.618,191.005 396.048,189.906 396.151 C 184.131 396.695,181.991 401.063,186.547 403.006 C 191.260 405.017,206.489 404.479,211.642 402.120 C 215.650 400.285,214.290 396.504,209.469 396.081 C 208.744 396.017,206.839 395.595,205.235 395.143 C 202.388 394.339,199.279 393.965,198.085 394.282 M238.609 394.472 C 227.955 394.990,226.172 395.129,224.496 395.570 C 218.490 397.150,216.252 400.559,220.007 402.408 C 224.694 404.715,240.918 404.935,249.395 402.807 C 255.318 401.319,257.626 398.630,255.009 396.266 C 252.630 394.116,250.565 393.890,238.609 394.472 M143.282 399.205 C 135.271 400.136,133.552 404.676,140.341 406.976 C 144.385 408.346,153.964 408.878,158.919 408.007 C 169.220 406.195,171.339 400.503,162.198 399.201 C 160.552 398.967,145.305 398.970,143.282 399.205 " stroke="none" fill="#060606" fill-rule="evenodd"></path><path id="path1" d="M195.427 12.147 C 183.762 29.595,177.295 39.973,171.275 50.907 C 170.299 52.681,169.371 54.341,169.215 54.596 C 168.936 55.050,168.904 55.024,167.500 53.184 C 156.373 38.607,140.721 26.496,125.101 20.379 C 112.213 15.331,98.209 13.760,89.938 16.434 C 87.929 17.084,76.422 22.597,75.357 23.420 C 75.041 23.665,75.352 24.123,78.761 28.427 C 84.831 36.093,86.971 39.014,89.280 42.786 L 90.109 44.140 88.176 42.516 C 70.192 27.395,48.064 18.994,27.319 19.411 C 17.178 19.615,13.258 21.093,5.006 27.823 C 2.763 29.652,0.793 31.250,0.630 31.374 C 0.383 31.561,1.073 32.549,4.713 37.221 C 9.215 42.997,11.082 45.634,13.403 49.496 C 22.753 65.052,28.208 85.810,28.230 105.913 C 28.280 152.071,43.195 190.741,68.211 209.570 L 69.723 210.708 67.558 212.885 C 55.990 224.521,51.706 237.807,56.108 248.395 C 57.030 250.613,61.868 260.936,62.091 261.162 C 62.187 261.258,64.470 259.756,67.237 257.777 C 72.958 253.684,73.814 253.165,75.606 252.704 C 80.662 251.403,89.502 254.613,98.359 260.965 C 116.359 273.876,138.667 278.628,154.132 272.845 L 155.138 272.468 159.273 275.004 C 161.547 276.399,165.196 278.617,167.383 279.933 C 172.162 282.809,173.667 284.168,175.924 287.653 C 186.079 303.333,183.930 338.443,171.713 356.428 L 171.113 357.312 167.764 357.202 C 165.609 357.131,162.929 356.872,160.245 356.475 C 149.585 354.897,144.648 354.865,139.240 356.339 C 120.369 361.479,116.133 382.537,132.788 388.407 L 133.823 388.772 133.914 390.303 C 134.052 392.611,135.287 394.623,137.125 395.532 L 137.943 395.937 136.664 396.571 C 130.007 399.874,130.180 407.060,136.996 410.310 C 144.455 413.867,160.052 413.689,167.138 409.965 C 171.316 407.770,173.317 403.084,171.540 399.656 C 170.876 398.374,170.861 398.387,172.972 398.387 C 175.212 398.387,177.712 398.070,179.253 397.590 C 180.309 397.262,180.458 397.252,180.354 397.522 C 178.983 401.096,180.514 404.850,184.073 406.643 C 190.675 409.970,208.676 409.163,214.995 405.258 L 215.701 404.821 216.671 405.517 C 223.753 410.597,251.748 409.408,257.661 403.776 C 260.978 400.617,261.137 396.014,258.030 393.095 L 257.011 392.137 259.846 392.137 C 264.212 392.137,265.913 391.604,267.833 389.633 C 272.329 385.021,270.283 377.656,263.991 375.802 L 263.164 375.559 263.563 374.732 C 265.555 370.609,263.469 365.225,258.964 362.864 C 253.389 359.941,240.816 359.952,234.267 362.884 L 233.428 363.259 231.583 361.407 C 228.427 358.238,225.038 356.986,220.725 357.396 C 219.583 357.504,218.625 357.576,218.595 357.556 C 218.566 357.536,218.909 356.239,219.359 354.673 C 223.215 341.231,225.150 324.931,225.596 302.117 C 225.760 293.721,225.782 293.384,226.289 291.431 C 228.278 283.760,234.907 277.012,243.212 274.205 L 244.954 273.616 246.217 274.113 C 254.564 277.393,270.033 278.190,280.444 275.876 C 291.596 273.397,301.289 268.344,310.872 260.013 C 317.351 254.382,323.776 250.911,328.550 250.465 C 330.388 250.294,331.292 250.838,341.061 257.992 C 344.294 260.361,346.988 262.298,347.046 262.298 C 347.259 262.298,352.807 245.198,353.261 243.145 C 355.394 233.479,351.037 220.936,342.019 210.777 L 340.578 209.154 342.297 207.248 C 360.033 187.576,370.693 163.655,373.289 137.702 C 374.026 130.329,373.912 121.265,372.882 105.444 C 371.199 79.608,371.458 75.106,375.207 64.969 C 378.861 55.091,383.619 47.967,393.643 37.370 C 396.250 34.614,398.361 32.293,398.334 32.213 C 398.253 31.967,389.016 24.504,387.929 23.807 C 382.658 20.425,377.113 19.211,367.870 19.416 C 345.920 19.904,324.836 29.310,307.135 46.512 L 304.894 48.690 305.373 46.943 C 307.187 40.323,309.122 35.953,315.066 25.040 C 316.896 21.681,318.361 18.905,318.320 18.873 C 318.140 18.729,304.726 14.882,302.823 14.428 C 294.027 12.331,288.881 12.727,278.418 16.303 C 263.605 21.367,248.636 31.624,236.568 44.978 C 235.275 46.410,234.162 47.579,234.094 47.578 C 234.027 47.576,233.024 45.702,231.865 43.414 C 226.154 32.134,219.818 21.466,214.822 14.718 C 212.821 12.017,203.569 0.423,203.404 0.412 C 203.335 0.407,199.746 5.688,195.427 12.147 M207.630 21.214 C 214.298 30.475,222.686 45.629,229.925 61.492 C 231.013 63.876,231.962 65.892,232.034 65.971 C 232.105 66.051,233.079 64.826,234.198 63.249 C 247.264 44.832,264.915 30.882,282.309 25.226 C 291.373 22.278,295.686 22.175,303.867 24.712 C 304.153 24.800,303.962 25.299,302.646 27.886 C 294.586 43.741,292.420 57.832,295.589 73.790 C 296.160 76.664,296.150 76.658,297.156 74.891 C 306.935 57.702,323.246 42.841,340.755 35.167 C 356.849 28.113,376.917 26.920,383.641 32.618 L 384.288 33.165 382.548 35.081 C 371.871 46.837,365.104 60.489,362.864 74.798 C 362.289 78.471,362.248 88.367,362.773 96.673 C 362.955 99.556,363.282 104.682,363.500 108.065 C 364.810 128.428,364.432 137.540,361.780 149.581 C 357.147 170.614,347.016 188.906,331.302 204.609 C 328.599 207.310,326.416 209.538,326.450 209.560 C 337.501 216.671,346.045 232.311,343.857 241.422 C 343.534 242.768,342.362 246.599,342.230 246.743 C 342.195 246.781,341.275 246.185,340.186 245.419 C 333.250 240.535,330.551 239.865,324.194 241.451 C 317.712 243.067,311.964 246.353,304.636 252.634 C 296.270 259.805,288.645 263.909,279.614 266.102 C 269.187 268.634,254.390 267.667,247.108 263.977 C 244.805 262.810,236.033 265.925,230.544 269.859 C 220.626 276.969,216.135 285.948,216.126 298.684 C 216.106 330.119,211.558 355.149,203.744 366.837 C 203.015 367.926,202.462 368.860,202.513 368.911 C 202.565 368.963,207.049 368.545,212.479 367.982 C 224.077 366.781,224.373 366.814,225.756 369.440 C 227.366 372.500,223.671 378.423,220.608 377.694 C 219.706 377.479,217.094 377.422,208.589 377.433 L 197.723 377.446 196.729 376.475 C 195.082 374.866,192.137 370.193,192.137 369.190 C 192.137 368.982,192.324 368.643,192.553 368.436 C 199.195 362.425,204.399 341.537,205.633 315.927 C 206.473 298.499,206.222 297.409,201.192 296.672 L 200.268 296.537 200.134 307.895 C 199.912 326.799,199.096 335.448,196.544 345.937 C 190.316 371.539,174.806 383.109,148.904 381.474 C 134.199 380.546,129.225 377.269,133.288 371.185 C 137.013 365.606,144.283 363.980,157.157 365.846 C 163.474 366.762,165.639 366.932,170.968 366.930 L 176.109 366.928 177.419 365.118 C 196.887 338.224,196.848 290.310,177.347 274.823 C 176.666 274.282,172.979 271.954,169.153 269.650 C 162.066 265.381,156.754 262.063,156.301 261.622 C 156.102 261.429,155.640 261.578,154.119 262.325 C 140.682 268.924,121.038 265.227,103.591 252.815 C 88.858 242.333,75.824 239.984,66.810 246.186 C 66.340 246.510,65.916 246.774,65.868 246.774 C 65.821 246.774,65.383 245.799,64.897 244.607 L 64.012 242.440 64.018 239.819 C 64.039 230.143,72.986 218.403,86.580 210.215 L 87.777 209.494 86.782 209.069 C 71.526 202.552,60.497 191.232,51.526 172.883 C 42.563 154.552,38.493 135.902,37.909 110.484 C 37.147 77.383,30.702 55.751,15.573 35.520 L 13.867 33.238 14.320 32.756 C 18.280 28.541,32.155 27.831,45.681 31.153 C 67.425 36.492,87.744 51.313,102.726 72.766 C 103.903 74.451,103.912 74.458,104.072 73.874 C 108.130 59.042,104.647 46.440,91.807 29.495 C 89.560 26.529,89.619 26.977,91.381 26.245 C 94.261 25.050,95.130 24.900,99.093 24.919 C 124.821 25.038,152.101 43.465,168.395 71.732 C 169.180 73.095,169.881 74.246,169.952 74.290 C 170.023 74.334,170.743 72.946,171.553 71.207 C 177.776 57.834,188.578 39.557,202.590 18.692 L 204.051 16.518 204.917 17.584 C 205.394 18.170,206.615 19.803,207.630 21.214 M251.533 365.123 C 257.937 365.926,261.630 369.421,259.797 372.943 C 258.640 375.168,258.025 375.292,247.795 375.365 C 238.214 375.433,237.130 375.349,235.081 374.380 C 226.104 370.134,238.022 363.429,251.533 365.123 M163.021 370.915 C 161.240 371.849,157.641 372.176,149.158 372.177 C 142.387 372.177,142.540 372.143,142.540 373.690 C 142.540 375.271,142.141 375.202,151.289 375.202 C 161.151 375.202,162.243 374.924,163.533 372.084 C 164.182 370.655,164.058 370.372,163.021 370.915 M262.242 379.740 C 266.186 380.911,267.384 384.439,264.651 386.838 C 263.394 387.942,263.259 387.952,250.510 387.844 C 238.737 387.744,237.083 387.645,235.263 386.932 C 232.212 385.737,235.305 380.840,239.819 379.720 C 241.439 379.318,260.879 379.335,262.242 379.740 M188.476 381.736 C 189.285 382.719,189.289 382.731,188.966 383.349 C 188.787 383.692,188.480 384.471,188.283 385.081 C 188.086 385.691,187.920 386.028,187.914 385.830 C 187.898 385.283,186.975 383.573,186.253 382.751 L 185.610 382.019 186.404 381.336 C 187.384 380.495,187.468 380.511,188.476 381.736 M219.597 381.678 C 224.900 382.804,225.641 387.330,220.890 389.580 C 213.226 393.208,194.287 392.471,192.215 388.464 C 191.024 386.160,194.492 382.308,198.343 381.659 C 199.887 381.399,218.359 381.416,219.597 381.678 M180.704 384.074 C 187.819 386.736,183.193 393.571,173.947 394.057 C 172.586 394.128,169.612 394.401,167.339 394.664 C 159.210 395.601,158.627 395.567,149.999 393.649 C 145.207 392.584,141.487 391.949,139.985 391.939 C 137.781 391.926,137.291 389.199,139.250 387.851 C 142.559 385.575,147.740 385.133,153.024 386.676 C 158.003 388.130,160.227 388.003,167.322 385.860 C 174.735 383.621,178.242 383.153,180.704 384.074 M229.950 384.965 C 229.744 386.618,230.361 388.430,231.488 389.482 C 232.584 390.503,232.680 390.455,229.310 390.571 L 226.463 390.669 227.021 389.841 C 227.667 388.880,228.227 387.138,228.223 386.103 C 228.220 385.505,228.366 385.255,229.080 384.633 C 230.161 383.690,230.112 383.671,229.950 384.965 M188.850 391.046 L 189.293 391.720 188.548 391.839 C 188.138 391.904,187.644 391.990,187.450 392.029 C 187.018 392.115,187.014 392.182,187.500 391.177 C 187.722 390.718,187.909 390.179,187.915 389.979 C 187.926 389.638,187.941 389.639,188.167 389.995 C 188.299 390.203,188.606 390.676,188.850 391.046 M202.923 394.453 C 204.032 394.729,205.620 395.138,206.451 395.364 C 207.283 395.589,208.706 395.858,209.614 395.961 C 214.458 396.511,215.733 400.204,211.765 402.190 C 206.799 404.675,191.351 405.182,186.335 403.024 C 181.633 401.001,184.117 396.624,190.335 395.976 C 191.382 395.867,193.236 395.494,194.456 395.149 C 199.241 393.792,200.008 393.729,202.923 394.453 M250.874 394.251 C 256.874 395.522,257.935 399.417,252.913 401.738 C 245.118 405.339,222.651 405.350,218.781 401.754 C 216.863 399.971,218.720 397.460,223.110 395.900 C 225.447 395.070,226.659 394.941,236.593 394.462 C 248.271 393.900,249.157 393.887,250.874 394.251 M163.814 399.396 C 171.100 401.260,168.689 406.232,159.663 407.957 C 155.748 408.705,148.166 408.714,143.942 407.975 C 134.261 406.281,133.045 401.213,141.866 399.321 C 144.276 398.804,161.733 398.864,163.814 399.396 " stroke="none" fill="#fbfbfb" fill-rule="evenodd"></path><path id="path2" d="M128.931 212.514 C 119.987 215.547,112.802 216.203,105.354 214.665 C 99.774 213.513,100.167 213.520,98.156 214.531 C 88.790 219.240,80.985 226.507,78.416 232.911 C 77.843 234.339,77.853 234.348,79.417 233.861 C 87.435 231.366,98.645 235.174,109.067 243.935 C 120.122 253.226,138.126 257.394,150.426 253.509 C 151.300 253.233,152.015 252.988,152.014 252.965 C 152.012 252.942,151.827 252.337,151.603 251.621 C 150.344 247.606,149.570 237.420,150.308 234.586 C 150.936 232.175,153.114 228.354,156.206 224.236 C 157.146 222.985,157.881 221.932,157.839 221.897 C 157.796 221.862,156.855 221.630,155.746 221.381 C 149.673 220.018,141.012 216.543,134.054 212.678 C 132.879 212.026,131.881 211.506,131.836 211.524 C 131.791 211.542,130.484 211.987,128.931 212.514 M311.794 218.376 C 304.368 220.552,292.063 223.364,287.975 223.818 C 283.676 224.296,274.473 223.588,270.076 222.441 C 265.928 221.360,259.816 222.337,254.111 224.993 C 252.072 225.942,252.085 225.917,252.963 227.220 C 257.018 233.242,257.146 245.273,253.239 253.074 C 252.698 254.155,252.315 255.074,252.388 255.116 C 255.233 256.761,271.728 257.615,276.892 256.385 C 284.194 254.646,290.711 251.190,296.976 245.736 C 308.107 236.044,321.381 230.484,329.475 232.121 L 330.219 232.272 329.705 231.005 C 325.868 221.563,318.543 216.397,311.794 218.376 M169.017 226.613 C 165.920 228.381,163.265 233.036,162.376 238.254 C 161.174 245.306,163.199 251.196,168.612 256.393 C 170.305 258.018,171.017 258.525,176.512 262.017 C 183.462 266.434,189.075 271.285,191.418 274.899 C 193.692 278.407,193.969 278.779,195.215 280.005 C 202.474 287.143,209.080 284.837,214.203 273.375 C 216.879 267.387,223.882 261.398,231.149 258.882 C 242.681 254.889,248.515 244.753,245.138 234.577 C 244.036 231.256,241.739 228.158,239.273 226.666 L 238.193 226.013 235.276 227.033 C 215.158 234.069,191.539 233.921,171.656 226.634 L 170.026 226.037 169.017 226.613 " stroke="none" fill="#04ab4b" fill-rule="evenodd"></path><path id="path3" d="M107.318 36.845 C 117.117 48.987,118.518 69.585,111.187 93.750 C 108.357 103.076,107.099 124.789,108.564 139.012 C 112.391 176.164,133.174 205.401,161.449 213.409 C 161.807 213.511,161.487 212.968,160.013 210.975 C 146.200 192.298,140.802 163.482,145.948 135.887 C 148.388 122.802,153.173 107.833,160.202 91.293 C 162.227 86.529,162.196 87.359,160.459 84.401 C 146.379 60.427,129.690 43.584,114.002 37.513 C 112.152 36.797,106.884 35.282,106.245 35.282 C 106.142 35.282,106.624 35.985,107.318 36.845 M287.702 37.596 C 269.289 40.316,250.899 54.490,239.032 75.110 L 238.098 76.732 239.231 78.840 C 257.418 112.675,266.397 156.016,260.177 179.940 C 257.328 190.897,250.972 204.253,242.443 217.206 L 242.066 217.780 243.261 217.640 C 271.866 214.283,294.046 190.785,297.686 159.980 C 299.410 145.392,297.020 119.082,292.727 105.386 C 290.848 99.393,286.804 81.828,285.406 73.589 C 283.126 60.152,284.143 50.523,288.979 39.768 C 289.865 37.798,290.022 37.303,289.753 37.320 C 289.567 37.333,288.644 37.456,287.702 37.596 M201.194 41.583 C 157.313 108.468,143.630 161.956,162.036 194.656 C 173.850 215.646,194.135 225.782,214.012 220.626 C 228.268 216.928,241.129 203.348,246.738 186.068 C 256.315 156.566,245.150 107.150,218.296 60.181 C 213.615 51.995,204.498 37.500,204.030 37.500 C 203.943 37.500,202.667 39.337,201.194 41.583 M364.617 39.532 C 339.894 41.008,315.427 59.876,301.684 88.063 L 300.181 91.147 301.389 96.229 C 309.674 131.088,310.266 155.338,303.341 176.310 C 299.266 188.654,293.457 198.322,285.143 206.598 L 282.262 209.466 283.319 209.773 C 302.677 215.396,319.834 206.662,335.391 183.266 C 345.428 168.172,350.862 152.380,352.006 134.983 C 352.406 128.901,352.252 122.977,351.313 108.266 C 351.041 103.997,350.710 98.735,350.577 96.573 C 350.198 90.379,350.247 80.085,350.670 76.939 C 352.530 63.106,357.790 51.090,366.024 41.862 C 368.214 39.408,368.281 39.308,367.708 39.345 C 367.450 39.362,366.058 39.446,364.617 39.532 M30.268 41.917 C 43.142 59.848,49.071 83.052,49.796 118.347 C 50.254 140.678,53.587 153.475,63.034 169.180 C 79.078 195.852,100.159 207.820,120.319 201.700 L 121.988 201.193 120.579 199.639 C 108.007 185.776,99.632 164.266,96.896 138.810 C 96.041 130.850,95.759 117.351,96.329 111.593 C 97.078 104.021,98.123 96.070,99.364 88.518 L 99.942 85.000 98.929 83.579 C 84.061 62.705,64.950 48.328,45.627 43.478 C 39.105 41.841,29.513 40.867,30.268 41.917 " stroke="none" fill="#f3740c" fill-rule="evenodd"></path><path id="path4" d="M294.105 22.925 C 294.356 22.973,294.719 22.971,294.912 22.921 C 295.104 22.870,294.899 22.831,294.456 22.833 C 294.012 22.835,293.854 22.877,294.105 22.925 M97.538 24.948 C 98.236 24.987,99.324 24.987,99.957 24.947 C 100.591 24.907,100.020 24.875,98.690 24.875 C 97.359 24.876,96.841 24.908,97.538 24.948 M102.873 25.139 C 103.067 25.190,103.385 25.190,103.579 25.139 C 103.773 25.088,103.614 25.047,103.226 25.047 C 102.838 25.047,102.679 25.088,102.873 25.139 M24.647 29.171 C 24.841 29.222,25.159 29.222,25.353 29.171 C 25.547 29.121,25.388 29.079,25.000 29.079 C 24.612 29.079,24.453 29.121,24.647 29.171 M31.303 29.177 C 31.610 29.223,32.063 29.222,32.311 29.174 C 32.559 29.126,32.308 29.088,31.754 29.090 C 31.200 29.091,30.997 29.131,31.303 29.177 M365.779 29.177 C 366.085 29.223,366.539 29.222,366.787 29.174 C 367.035 29.126,366.784 29.088,366.230 29.090 C 365.675 29.091,365.473 29.131,365.779 29.177 M372.631 29.171 C 372.825 29.222,373.143 29.222,373.337 29.171 C 373.531 29.121,373.372 29.079,372.984 29.079 C 372.596 29.079,372.437 29.121,372.631 29.171 M34.325 29.373 C 34.519 29.424,34.836 29.424,35.030 29.373 C 35.224 29.322,35.066 29.281,34.677 29.281 C 34.289 29.281,34.131 29.322,34.325 29.373 M363.155 29.373 C 363.349 29.424,363.667 29.424,363.861 29.373 C 364.055 29.322,363.896 29.281,363.508 29.281 C 363.120 29.281,362.961 29.322,363.155 29.373 M382.650 34.829 L 381.956 35.585 382.712 34.890 C 383.415 34.243,383.560 34.073,383.406 34.073 C 383.373 34.073,383.033 34.413,382.650 34.829 M249.890 45.212 L 249.093 46.069 249.950 45.272 C 250.421 44.833,250.806 44.448,250.806 44.415 C 250.806 44.262,250.631 44.415,249.890 45.212 M147.984 46.232 C 147.984 46.267,148.279 46.562,148.639 46.888 L 149.294 47.480 148.702 46.825 C 148.150 46.214,147.984 46.077,147.984 46.232 M244.245 50.857 L 243.448 51.714 244.304 50.917 C 244.776 50.478,245.161 50.093,245.161 50.060 C 245.161 49.907,244.986 50.060,244.245 50.857 M316.620 50.857 L 316.028 51.512 316.683 50.920 C 317.294 50.368,317.431 50.202,317.276 50.202 C 317.241 50.202,316.946 50.496,316.620 50.857 M153.730 52.016 C 154.163 52.460,154.563 52.823,154.618 52.823 C 154.674 52.823,154.365 52.460,153.931 52.016 C 153.498 51.573,153.099 51.210,153.043 51.210 C 152.988 51.210,153.297 51.573,153.730 52.016 M313.000 54.284 L 310.988 56.351 313.054 54.338 C 314.974 52.469,315.213 52.218,315.067 52.218 C 315.037 52.218,314.107 53.148,313.000 54.284 M294.208 55.444 C 294.208 55.943,294.247 56.147,294.296 55.897 C 294.344 55.648,294.344 55.239,294.296 54.990 C 294.247 54.740,294.208 54.945,294.208 55.444 M87.702 55.096 C 87.702 55.126,88.405 55.829,89.264 56.658 L 90.827 58.165 89.320 56.603 C 87.920 55.152,87.702 54.948,87.702 55.096 M105.913 62.198 C 105.914 62.974,105.950 63.267,105.994 62.848 C 106.038 62.430,106.037 61.795,105.992 61.437 C 105.948 61.079,105.912 61.421,105.913 62.198 M294.219 62.198 C 294.220 62.974,294.257 63.267,294.300 62.848 C 294.344 62.430,294.343 61.795,294.299 61.437 C 294.254 61.079,294.218 61.421,294.219 62.198 M294.402 65.726 C 294.402 66.114,294.443 66.273,294.494 66.079 C 294.545 65.885,294.545 65.567,294.494 65.373 C 294.443 65.179,294.402 65.338,294.402 65.726 M362.349 78.730 C 362.351 79.173,362.393 79.331,362.441 79.080 C 362.489 78.830,362.487 78.467,362.437 78.274 C 362.386 78.081,362.347 78.286,362.349 78.730 M362.365 89.617 C 362.365 90.393,362.402 90.686,362.446 90.268 C 362.489 89.849,362.488 89.214,362.444 88.856 C 362.399 88.498,362.364 88.841,362.365 89.617 M362.558 94.254 C 362.559 94.808,362.598 95.011,362.645 94.705 C 362.691 94.398,362.690 93.945,362.642 93.697 C 362.594 93.449,362.556 93.700,362.558 94.254 M37.345 96.169 C 37.345 96.557,37.387 96.716,37.437 96.522 C 37.488 96.328,37.488 96.011,37.437 95.817 C 37.387 95.622,37.345 95.781,37.345 96.169 M362.759 97.883 C 362.761 98.438,362.800 98.640,362.846 98.334 C 362.893 98.027,362.891 97.574,362.844 97.326 C 362.796 97.078,362.758 97.329,362.759 97.883 M37.555 98.992 C 37.555 99.491,37.594 99.695,37.642 99.446 C 37.690 99.196,37.690 98.788,37.642 98.538 C 37.594 98.289,37.555 98.493,37.555 98.992 M362.954 101.109 C 362.956 101.552,362.998 101.710,363.046 101.459 C 363.094 101.209,363.092 100.846,363.042 100.653 C 362.991 100.460,362.952 100.665,362.954 101.109 M37.778 104.435 C 37.778 105.711,37.811 106.232,37.851 105.595 C 37.891 104.957,37.891 103.914,37.851 103.276 C 37.811 102.639,37.778 103.160,37.778 104.435 M363.156 104.133 C 363.158 104.577,363.199 104.734,363.247 104.484 C 363.296 104.233,363.294 103.870,363.243 103.677 C 363.193 103.484,363.153 103.690,363.156 104.133 M363.361 107.258 C 363.361 107.757,363.401 107.961,363.449 107.712 C 363.497 107.462,363.497 107.054,363.449 106.804 C 363.401 106.555,363.361 106.759,363.361 107.258 M363.559 110.383 C 363.561 110.827,363.602 110.984,363.651 110.734 C 363.699 110.483,363.697 110.120,363.647 109.927 C 363.596 109.734,363.557 109.940,363.559 110.383 M363.767 114.012 C 363.769 114.567,363.808 114.769,363.854 114.463 C 363.901 114.156,363.899 113.703,363.852 113.455 C 363.804 113.207,363.766 113.458,363.767 114.012 M37.971 114.919 C 37.971 115.751,38.007 116.091,38.050 115.675 C 38.094 115.260,38.094 114.579,38.050 114.163 C 38.007 113.747,37.971 114.088,37.971 114.919 M363.976 117.944 C 363.976 118.664,364.012 118.959,364.057 118.599 C 364.102 118.238,364.102 117.649,364.057 117.288 C 364.012 116.928,363.976 117.223,363.976 117.944 M38.160 119.153 C 38.160 119.652,38.199 119.856,38.247 119.607 C 38.295 119.357,38.295 118.949,38.247 118.700 C 38.199 118.450,38.160 118.654,38.160 119.153 M38.353 122.177 C 38.353 122.566,38.395 122.724,38.445 122.530 C 38.496 122.336,38.496 122.019,38.445 121.825 C 38.395 121.631,38.353 121.789,38.353 122.177 M364.199 126.210 C 364.199 128.594,364.228 129.569,364.263 128.377 C 364.299 127.185,364.299 125.234,364.263 124.042 C 364.228 122.850,364.199 123.826,364.199 126.210 M38.555 124.597 C 38.555 124.985,38.596 125.144,38.647 124.950 C 38.698 124.756,38.698 124.438,38.647 124.244 C 38.596 124.050,38.555 124.209,38.555 124.597 M363.966 133.468 C 363.966 133.967,364.006 134.171,364.054 133.921 C 364.102 133.672,364.102 133.264,364.054 133.014 C 364.006 132.765,363.966 132.969,363.966 133.468 M334.366 201.462 L 333.569 202.319 334.425 201.522 C 334.897 201.083,335.282 200.698,335.282 200.665 C 335.282 200.512,335.107 200.665,334.366 201.462 M328.720 207.107 L 327.923 207.964 328.780 207.167 C 329.577 206.426,329.730 206.250,329.577 206.250 C 329.544 206.250,329.159 206.636,328.720 207.107 M332.653 214.970 C 333.488 215.860,333.669 216.020,333.669 215.869 C 333.669 215.836,333.238 215.405,332.712 214.911 L 331.754 214.012 332.653 214.970 M74.391 219.708 L 72.480 221.673 74.446 219.762 C 75.527 218.711,76.411 217.826,76.411 217.796 C 76.411 217.650,76.166 217.882,74.391 219.708 M328.377 240.666 C 328.627 240.715,329.035 240.715,329.284 240.666 C 329.534 240.618,329.330 240.579,328.831 240.579 C 328.332 240.579,328.128 240.618,328.377 240.666 M77.173 242.688 C 77.647 242.731,78.373 242.730,78.786 242.687 C 79.198 242.644,78.810 242.609,77.923 242.609 C 77.036 242.610,76.698 242.646,77.173 242.688 M138.458 265.472 C 139.151 265.511,140.285 265.511,140.978 265.472 C 141.671 265.432,141.104 265.400,139.718 265.400 C 138.332 265.400,137.765 265.432,138.458 265.472 M260.534 267.276 C 260.728 267.327,261.046 267.327,261.240 267.276 C 261.434 267.225,261.275 267.184,260.887 267.184 C 260.499 267.184,260.340 267.225,260.534 267.276 M263.655 267.484 C 264.013 267.529,264.648 267.529,265.066 267.486 C 265.484 267.442,265.192 267.406,264.415 267.405 C 263.639 267.404,263.297 267.440,263.655 267.484 M269.808 267.483 C 270.113 267.529,270.612 267.529,270.917 267.483 C 271.222 267.437,270.973 267.399,270.363 267.399 C 269.753 267.399,269.504 267.437,269.808 267.483 M225.800 273.740 L 224.698 274.899 225.857 273.797 C 226.494 273.191,227.016 272.669,227.016 272.638 C 227.016 272.488,226.823 272.663,225.800 273.740 M179.435 276.714 C 180.038 277.324,180.576 277.823,180.631 277.823 C 180.687 277.823,180.239 277.324,179.637 276.714 C 179.035 276.104,178.497 275.605,178.441 275.605 C 178.386 275.605,178.833 276.104,179.435 276.714 M200.092 304.234 C 200.092 308.503,200.118 310.249,200.151 308.115 C 200.184 305.980,200.184 302.487,200.151 300.353 C 200.118 298.218,200.092 299.965,200.092 304.234 M216.012 300.806 C 216.012 303.080,216.042 304.010,216.078 302.873 C 216.114 301.736,216.114 299.877,216.078 298.740 C 216.042 297.603,216.012 298.533,216.012 300.806 M205.920 308.367 C 205.921 309.476,205.955 309.904,205.996 309.318 C 206.037 308.732,206.036 307.825,205.995 307.302 C 205.953 306.779,205.920 307.258,205.920 308.367 M191.785 309.375 C 191.787 309.819,191.828 309.976,191.876 309.725 C 191.925 309.475,191.923 309.112,191.872 308.919 C 191.822 308.726,191.782 308.931,191.785 309.375 M215.792 309.980 C 215.793 310.756,215.829 311.049,215.873 310.631 C 215.917 310.212,215.916 309.577,215.871 309.219 C 215.827 308.861,215.791 309.204,215.792 309.980 M192.016 315.323 C 192.016 316.930,192.047 317.588,192.085 316.784 C 192.123 315.980,192.123 314.665,192.085 313.861 C 192.047 313.057,192.016 313.715,192.016 315.323 M215.585 314.516 C 215.585 315.126,215.622 315.376,215.669 315.071 C 215.715 314.766,215.715 314.267,215.669 313.962 C 215.622 313.657,215.585 313.906,215.585 314.516 M205.708 314.819 C 205.709 315.484,205.746 315.732,205.791 315.369 C 205.836 315.007,205.835 314.463,205.789 314.160 C 205.743 313.857,205.707 314.153,205.708 314.819 M215.377 317.944 C 215.377 318.443,215.417 318.647,215.465 318.397 C 215.513 318.148,215.513 317.739,215.465 317.490 C 215.417 317.240,215.377 317.445,215.377 317.944 M199.866 319.153 C 199.866 319.985,199.902 320.325,199.945 319.909 C 199.989 319.493,199.989 318.813,199.945 318.397 C 199.902 317.981,199.866 318.322,199.866 319.153 M205.498 318.750 C 205.498 319.249,205.538 319.453,205.586 319.204 C 205.634 318.954,205.634 318.546,205.586 318.296 C 205.538 318.047,205.498 318.251,205.498 318.750 M215.172 320.867 C 215.174 321.310,215.215 321.468,215.264 321.217 C 215.312 320.967,215.310 320.604,215.259 320.411 C 215.209 320.218,215.170 320.423,215.172 320.867 M191.789 321.774 C 191.789 322.273,191.828 322.477,191.876 322.228 C 191.924 321.978,191.924 321.570,191.876 321.321 C 191.828 321.071,191.789 321.275,191.789 321.774 M205.293 321.875 C 205.295 322.319,205.336 322.476,205.385 322.225 C 205.433 321.975,205.431 321.612,205.380 321.419 C 205.330 321.226,205.291 321.431,205.293 321.875 M199.652 323.387 C 199.652 323.886,199.691 324.090,199.739 323.841 C 199.787 323.591,199.787 323.183,199.739 322.933 C 199.691 322.684,199.652 322.888,199.652 323.387 M191.579 324.395 C 191.579 324.783,191.621 324.942,191.671 324.748 C 191.722 324.554,191.722 324.236,191.671 324.042 C 191.621 323.848,191.579 324.007,191.579 324.395 M205.087 324.395 C 205.087 324.783,205.129 324.942,205.179 324.748 C 205.230 324.554,205.230 324.236,205.179 324.042 C 205.129 323.848,205.087 324.007,205.087 324.395 M199.446 326.310 C 199.448 326.754,199.490 326.912,199.538 326.661 C 199.586 326.410,199.584 326.047,199.534 325.855 C 199.483 325.662,199.444 325.867,199.446 326.310 M146.825 365.068 C 147.462 365.108,148.506 365.108,149.143 365.068 C 149.781 365.028,149.259 364.996,147.984 364.996 C 146.709 364.996,146.187 365.028,146.825 365.068 M246.229 365.069 C 247.093 365.107,248.454 365.107,249.253 365.069 C 250.052 365.031,249.345 365.000,247.681 365.000 C 246.018 365.000,245.365 365.031,246.229 365.069 M164.163 366.873 C 164.357 366.924,164.675 366.924,164.869 366.873 C 165.063 366.822,164.904 366.781,164.516 366.781 C 164.128 366.781,163.969 366.822,164.163 366.873 M168.913 367.086 C 170.277 367.121,172.455 367.121,173.751 367.086 C 175.048 367.051,173.931 367.022,171.270 367.022 C 168.609 367.023,167.548 367.051,168.913 367.086 M233.153 368.599 L 232.560 369.254 233.216 368.662 C 233.827 368.110,233.964 367.944,233.808 367.944 C 233.773 367.944,233.478 368.238,233.153 368.599 M202.105 368.971 C 202.043 369.071,202.225 369.153,202.508 369.153 C 203.126 369.153,203.176 369.038,202.621 368.893 C 202.400 368.835,202.167 368.870,202.105 368.971 M146.522 372.127 C 148.324 372.160,151.273 372.160,153.075 372.127 C 154.877 372.093,153.402 372.066,149.798 372.066 C 146.195 372.066,144.720 372.093,146.522 372.127 M162.489 373.538 L 161.794 374.294 162.550 373.600 C 163.254 372.953,163.399 372.782,163.245 372.782 C 163.212 372.782,162.871 373.122,162.489 373.538 M142.390 373.690 C 142.392 374.133,142.433 374.291,142.481 374.040 C 142.530 373.789,142.528 373.426,142.477 373.234 C 142.427 373.041,142.387 373.246,142.390 373.690 M131.902 375.202 C 131.902 375.590,131.943 375.748,131.994 375.554 C 132.045 375.360,132.045 375.043,131.994 374.849 C 131.943 374.655,131.902 374.814,131.902 375.202 M147.228 375.353 C 149.418 375.385,153.002 375.385,155.192 375.353 C 157.382 375.320,155.590 375.293,151.210 375.293 C 146.830 375.293,145.038 375.320,147.228 375.353 M242.591 375.353 C 245.003 375.385,248.949 375.385,251.361 375.353 C 253.773 375.320,251.799 375.294,246.976 375.294 C 242.152 375.294,240.179 375.320,242.591 375.353 M204.500 377.369 C 207.141 377.401,211.405 377.401,213.976 377.369 C 216.546 377.337,214.385 377.311,209.173 377.311 C 203.962 377.311,201.859 377.337,204.500 377.369 M245.931 379.587 C 248.850 379.618,253.568 379.618,256.415 379.587 C 259.263 379.555,256.875 379.529,251.109 379.529 C 245.343 379.529,243.013 379.555,245.931 379.587 M264.516 380.910 C 264.516 380.945,264.811 381.239,265.171 381.565 L 265.827 382.157 265.234 381.502 C 264.682 380.891,264.516 380.754,264.516 380.910 M147.129 381.393 C 147.380 381.441,147.743 381.439,147.936 381.389 C 148.129 381.338,147.923 381.299,147.480 381.301 C 147.036 381.303,146.879 381.344,147.129 381.393 M158.921 381.389 C 159.115 381.440,159.433 381.440,159.627 381.389 C 159.821 381.338,159.662 381.297,159.274 381.297 C 158.886 381.297,158.727 381.338,158.921 381.389 M152.076 381.602 C 153.052 381.639,154.594 381.639,155.504 381.601 C 156.413 381.564,155.615 381.534,153.730 381.534 C 151.845 381.534,151.101 381.565,152.076 381.602 M204.083 381.603 C 206.827 381.634,211.318 381.634,214.063 381.603 C 216.807 381.571,214.561 381.545,209.073 381.545 C 203.584 381.545,201.338 381.571,204.083 381.603 M193.538 384.224 L 192.843 384.980 193.599 384.285 C 194.303 383.638,194.448 383.468,194.294 383.468 C 194.260 383.468,193.920 383.808,193.538 384.224 M145.920 385.828 C 146.170 385.876,146.533 385.874,146.726 385.824 C 146.919 385.774,146.714 385.734,146.270 385.736 C 145.827 385.739,145.669 385.780,145.920 385.828 M264.707 386.643 L 264.012 387.399 264.768 386.704 C 265.184 386.322,265.524 385.982,265.524 385.948 C 265.524 385.794,265.354 385.939,264.707 386.643 M222.870 388.155 L 222.278 388.810 222.933 388.218 C 223.544 387.666,223.681 387.500,223.526 387.500 C 223.491 387.500,223.196 387.795,222.870 388.155 M238.760 387.639 C 238.954 387.690,239.272 387.690,239.466 387.639 C 239.660 387.588,239.501 387.547,239.113 387.547 C 238.725 387.547,238.566 387.588,238.760 387.639 M157.813 387.844 C 158.062 387.892,158.470 387.892,158.720 387.844 C 158.969 387.796,158.765 387.757,158.266 387.757 C 157.767 387.757,157.563 387.796,157.813 387.844 M246.839 387.853 C 249.813 387.884,254.621 387.884,257.524 387.853 C 260.427 387.821,257.994 387.795,252.117 387.795 C 246.240 387.796,243.865 387.821,246.839 387.853 M202.473 391.879 C 202.779 391.925,203.233 391.924,203.481 391.876 C 203.729 391.828,203.478 391.790,202.923 391.792 C 202.369 391.793,202.166 391.832,202.473 391.879 M209.026 391.880 C 209.388 391.925,209.933 391.924,210.235 391.878 C 210.538 391.832,210.242 391.795,209.577 391.796 C 208.911 391.797,208.663 391.835,209.026 391.880 M172.530 394.097 C 172.891 394.142,173.480 394.142,173.841 394.097 C 174.201 394.053,173.906 394.016,173.185 394.016 C 172.465 394.016,172.170 394.053,172.530 394.097 M199.550 394.098 C 199.912 394.143,200.457 394.142,200.760 394.096 C 201.063 394.050,200.766 394.013,200.101 394.014 C 199.435 394.015,199.188 394.053,199.550 394.098 M246.932 394.100 C 247.518 394.141,248.425 394.141,248.948 394.100 C 249.471 394.058,248.992 394.025,247.883 394.025 C 246.774 394.026,246.346 394.060,246.932 394.100 M242.087 394.299 C 242.447 394.344,243.037 394.344,243.397 394.299 C 243.758 394.254,243.463 394.218,242.742 394.218 C 242.021 394.218,241.726 394.254,242.087 394.299 M237.856 394.501 C 238.219 394.546,238.763 394.545,239.066 394.499 C 239.369 394.453,239.073 394.416,238.407 394.417 C 237.742 394.418,237.494 394.456,237.856 394.501 M233.417 394.702 C 233.778 394.747,234.367 394.747,234.728 394.702 C 235.088 394.658,234.793 394.621,234.073 394.621 C 233.352 394.621,233.057 394.658,233.417 394.702 M228.776 394.904 C 229.134 394.948,229.769 394.949,230.187 394.905 C 230.605 394.862,230.312 394.825,229.536 394.824 C 228.760 394.823,228.418 394.859,228.776 394.904 M162.954 395.099 C 163.148 395.149,163.465 395.149,163.659 395.099 C 163.853 395.048,163.695 395.006,163.306 395.006 C 162.918 395.006,162.760 395.048,162.954 395.099 M159.421 395.307 C 159.779 395.351,160.414 395.352,160.832 395.308 C 161.250 395.265,160.958 395.228,160.181 395.227 C 159.405 395.227,159.063 395.262,159.421 395.307 M254.637 395.829 C 254.637 395.864,254.932 396.159,255.292 396.484 L 255.948 397.077 255.355 396.421 C 254.803 395.811,254.637 395.673,254.637 395.829 M189.667 396.110 C 189.917 396.158,190.325 396.158,190.575 396.110 C 190.824 396.062,190.620 396.023,190.121 396.023 C 189.622 396.023,189.418 396.062,189.667 396.110 M209.425 396.110 C 209.675 396.158,210.083 396.158,210.333 396.110 C 210.582 396.062,210.378 396.023,209.879 396.023 C 209.380 396.023,209.176 396.062,209.425 396.110 M212.500 396.837 C 212.500 396.872,212.795 397.167,213.155 397.493 L 213.810 398.085 213.218 397.429 C 212.666 396.819,212.500 396.682,212.500 396.837 M184.967 398.034 L 184.375 398.690 185.030 398.097 C 185.641 397.545,185.778 397.379,185.622 397.379 C 185.588 397.379,185.293 397.674,184.967 398.034 M213.962 399.294 C 213.964 399.738,214.006 399.896,214.054 399.645 C 214.102 399.394,214.100 399.031,214.050 398.838 C 213.999 398.646,213.960 398.851,213.962 399.294 M143.397 399.131 C 143.591 399.182,143.909 399.182,144.103 399.131 C 144.297 399.080,144.138 399.039,143.750 399.039 C 143.362 399.039,143.203 399.080,143.397 399.131 M184.274 401.474 C 184.274 401.509,184.569 401.804,184.929 402.130 L 185.585 402.722 184.993 402.067 C 184.441 401.456,184.274 401.319,184.274 401.474 M201.968 404.175 C 202.219 404.223,202.582 404.221,202.775 404.171 C 202.967 404.120,202.762 404.081,202.319 404.083 C 201.875 404.085,201.717 404.127,201.968 404.175 M227.470 404.171 C 227.664 404.222,227.981 404.222,228.175 404.171 C 228.369 404.121,228.211 404.079,227.823 404.079 C 227.434 404.079,227.276 404.121,227.470 404.171 M240.678 404.175 C 240.929 404.223,241.291 404.221,241.484 404.171 C 241.677 404.120,241.472 404.081,241.028 404.083 C 240.585 404.085,240.427 404.127,240.678 404.175 M194.597 404.384 C 195.561 404.421,197.194 404.421,198.226 404.384 C 199.257 404.348,198.468 404.317,196.472 404.317 C 194.476 404.317,193.632 404.347,194.597 404.384 M232.096 404.384 C 233.282 404.420,235.278 404.420,236.531 404.384 C 237.785 404.349,236.815 404.320,234.375 404.320 C 231.935 404.320,230.910 404.349,232.096 404.384 M166.620 405.091 L 166.028 405.746 166.683 405.154 C 167.044 404.828,167.339 404.533,167.339 404.499 C 167.339 404.343,167.172 404.480,166.620 405.091 M147.331 408.409 C 147.582 408.457,147.945 408.455,148.137 408.405 C 148.330 408.354,148.125 408.315,147.681 408.317 C 147.238 408.319,147.080 408.360,147.331 408.409 M155.799 408.409 C 156.050 408.457,156.412 408.455,156.605 408.405 C 156.798 408.354,156.593 408.315,156.149 408.317 C 155.706 408.319,155.548 408.360,155.799 408.409 M151.462 408.612 C 151.767 408.658,152.266 408.658,152.571 408.612 C 152.876 408.566,152.626 408.528,152.016 408.528 C 151.406 408.528,151.157 408.566,151.462 408.612 " stroke="none" fill="#a1a0a1" fill-rule="evenodd"></path></g></svg>