<?xml version="1.0" standalone="no"?>
<!DOCTYPE svg PUBLIC "-//W3C//DTD SVG 20010904//EN"
 "http://www.w3.org/TR/2001/REC-SVG-20010904/DTD/svg10.dtd">
<svg version="1.0" xmlns="http://www.w3.org/2000/svg"
 width="413.000000pt" height="369.000000pt" viewBox="0 0 413.000000 369.000000"
 preserveAspectRatio="xMidYMid meet">

<g transform="translate(0.000000,369.000000) scale(0.100000,-0.100000)"
fill="#000000" stroke="none">
<path d="M1760 3530 c0 -5 -16 -10 -36 -10 -51 0 -182 -39 -224 -67 -19 -13
-42 -23 -52 -23 -9 0 -20 -4 -23 -10 -3 -5 -13 -10 -21 -10 -30 0 -370 -173
-426 -216 -31 -24 -61 -44 -67 -44 -6 0 -11 -4 -11 -9 0 -12 -75 -68 -155
-116 -151 -90 -281 -253 -338 -425 -36 -104 -36 -107 -42 -320 -9 -353 -15
-471 -25 -491 -6 -10 -10 -28 -10 -41 0 -13 -8 -40 -19 -61 -41 -81 -53 -123
-53 -189 0 -106 11 -111 64 -36 l46 63 -2 100 c-2 61 3 118 11 145 7 25 16 65
18 90 15 142 22 268 18 370 -2 63 2 151 8 195 12 93 54 185 82 185 20 0 17
-20 -10 -73 -8 -16 -12 -31 -10 -34 3 -3 -1 -26 -8 -52 -10 -31 -14 -97 -14
-206 1 -322 -2 -451 -14 -485 -16 -49 -50 -169 -54 -192 -3 -14 5 -60 17 -101
22 -75 22 -90 4 -232 -3 -27 -10 -54 -14 -60 -5 -5 -11 -40 -14 -77 -3 -38
-10 -77 -16 -87 -18 -34 -12 -80 15 -106 13 -14 31 -25 40 -25 8 0 15 -6 15
-14 0 -15 -36 -21 -202 -32 -76 -5 -98 -10 -98 -21 0 -12 23 -14 146 -10 92 3
149 9 154 16 10 17 110 11 110 -6 0 -18 132 -13 260 11 91 16 280 21 280 8 0
-12 152 -2 168 11 10 8 16 8 20 0 4 -6 32 -12 62 -13 82 -3 97 -1 82 8 -7 5
14 7 45 5 32 -1 86 -4 119 -6 45 -2 61 0 57 9 -5 14 42 21 195 30 71 4 107 3
115 -5 6 -6 39 -11 73 -11 35 0 66 -4 69 -10 10 -17 75 -12 75 5 0 19 18 18
100 -1 106 -25 120 -27 133 -17 6 6 32 9 57 7 126 -8 343 -14 339 -9 -3 2 -16
6 -29 8 -34 5 -36 25 -3 34 47 12 134 8 203 -11 89 -23 215 -23 241 0 18 16
26 17 75 6 30 -6 60 -9 67 -7 7 2 38 6 70 9 47 5 57 3 57 -9 0 -17 21 -20 36
-5 6 6 40 12 77 13 36 1 69 5 73 10 4 4 37 7 73 7 36 0 61 4 54 8 -7 4 -31 7
-55 6 -24 -1 -63 5 -88 13 -29 9 -61 12 -91 8 -26 -4 -72 -4 -101 0 l-54 7 0
47 c1 28 -5 55 -13 65 -19 22 -50 113 -51 146 -1 51 -29 157 -58 220 -37 79
-52 133 -52 182 0 62 -46 325 -75 433 -24 89 -36 138 -40 160 -2 11 -11 47
-20 80 -9 33 -19 70 -22 81 -5 23 1 31 62 71 33 21 51 26 103 25 84 -2 177
-34 209 -72 7 -8 22 -35 34 -59 19 -38 24 -42 34 -27 17 22 57 20 116 -5 36
-16 51 -29 57 -48 12 -43 8 -549 -5 -617 -21 -116 -86 -180 -126 -125 -12 19
-11 57 5 166 3 17 -7 20 -97 31 -55 7 -104 10 -108 7 -13 -8 2 -130 25 -208
34 -117 103 -168 225 -168 70 0 191 75 226 140 59 107 107 229 107 271 0 16 4
42 9 58 5 16 17 67 26 114 9 47 22 95 27 106 6 12 13 57 17 100 6 75 7 79 31
82 46 5 80 24 80 44 0 10 -6 18 -12 17 -44 -5 -68 2 -68 21 0 11 5 20 11 20 5
0 7 5 4 10 -4 6 -10 8 -15 5 -17 -10 -21 15 -25 145 -2 72 -10 149 -16 173
-11 39 -16 65 -18 94 -1 6 -9 19 -18 29 -12 12 -18 35 -19 68 -1 28 -9 88 -17
134 -13 65 -25 95 -56 140 -21 31 -42 72 -46 90 -4 18 -13 45 -21 60 -8 15
-14 30 -14 34 0 4 -8 18 -17 30 -116 143 -228 195 -300 138 -24 -19 -58 -21
-83 -5 -18 11 -121 35 -151 35 -26 0 -62 -15 -133 -58 -27 -16 -83 -10 -306
33 -247 47 -316 56 -560 71 -47 3 -86 10 -88 15 -5 13 -402 12 -402 -1z m-100
-49 c0 -5 -11 -11 -25 -13 -14 -3 -25 -2 -25 3 0 4 10 10 23 12 12 2 23 5 25
6 1 0 2 -3 2 -8z m410 -22 c0 -16 4 -19 22 -13 21 6 21 5 -6 -30 -30 -40 -30
-74 1 -57 10 5 32 21 48 35 17 14 35 29 40 34 6 4 17 0 27 -9 15 -16 15 -18
-5 -23 -16 -4 -19 -8 -10 -17 9 -9 20 -6 47 10 22 14 54 23 85 24 27 1 47 5
45 9 -6 9 29 28 50 28 9 0 16 -4 16 -10 0 -5 -7 -10 -15 -10 -17 0 -39 -36
-26 -44 5 -3 7 -15 4 -26 -4 -15 0 -20 14 -20 39 0 188 -177 199 -238 8 -40
33 -97 67 -152 15 -25 23 -58 28 -120 4 -47 17 -121 29 -165 19 -69 21 -86 11
-125 -7 -25 -19 -53 -28 -62 -15 -17 -15 -18 5 -18 12 0 41 6 64 14 116 39
125 39 166 9 72 -54 74 -59 47 -106 -16 -30 -30 -43 -49 -45 -20 -3 -26 1 -26
16 0 11 -7 25 -16 33 -11 9 -14 23 -10 48 l6 36 -20 -37 c-13 -24 -19 -51 -17
-75 4 -49 -10 -91 -33 -98 -22 -7 -34 -46 -17 -57 8 -5 7 -8 -4 -8 -16 0 -29
-19 -29 -41 0 -5 11 -9 25 -9 14 0 25 -5 25 -11 0 -5 4 -8 9 -5 4 3 -4 -18
-19 -47 -15 -30 -35 -54 -46 -56 -10 -2 -31 -14 -46 -26 -15 -13 -33 -25 -40
-27 -10 -4 -10 -8 1 -21 7 -10 20 -17 27 -17 16 0 19 -16 5 -24 -5 -3 -14 -26
-20 -51 -9 -36 -21 -52 -65 -85 -29 -22 -67 -42 -84 -44 -59 -6 -84 -50 -37
-62 27 -7 35 -34 10 -34 -12 0 -12 -3 2 -20 11 -13 24 -18 39 -14 25 6 43 -14
23 -26 -7 -5 -35 -12 -61 -15 -55 -8 -60 -17 -18 -35 16 -7 36 -25 44 -41 14
-28 14 -28 -20 -35 -19 -3 -37 -10 -40 -15 -3 -5 -11 -6 -17 -2 -7 4 -52 6
-102 4 l-90 -3 -17 30 c-24 41 -23 44 15 42 47 -3 57 -1 57 10 0 6 -9 10 -19
10 -11 0 -31 4 -44 9 -21 8 -23 14 -18 48 6 37 7 38 49 37 29 0 42 3 42 13 0
7 5 13 11 13 28 0 -6 18 -45 24 -24 4 -49 12 -54 19 -15 19 -24 67 -12 67 15
0 12 36 -5 50 -8 7 -15 18 -15 24 0 6 -15 18 -33 26 -20 9 -33 24 -35 38 -2
12 -7 22 -12 22 -20 0 -69 172 -90 320 -17 117 -21 130 -35 130 -7 0 -16 11
-19 25 -6 24 -26 36 -26 15 0 -18 -22 -10 -27 10 -3 11 -9 20 -14 20 -5 0 -9
8 -9 18 0 9 -9 31 -20 47 -27 41 -25 19 5 -61 14 -37 28 -92 31 -123 3 -31 7
-69 9 -85 4 -23 2 -27 -11 -22 -11 4 -18 -1 -21 -15 -5 -17 -11 -19 -43 -14
l-37 6 4 -45 c3 -30 1 -46 -6 -46 -6 0 -11 15 -11 34 0 19 -4 38 -10 41 -6 4
-10 -14 -10 -46 0 -44 -2 -50 -15 -39 -8 7 -21 10 -29 7 -10 -4 -17 5 -23 29
-8 34 -28 44 -28 14 0 -9 -8 -14 -18 -12 -13 2 -17 -4 -17 -30 0 -18 -7 -41
-14 -50 -12 -17 -14 -17 -28 0 -9 9 -19 33 -23 52 -4 19 -13 38 -19 42 -13 8
-13 11 -15 78 -2 75 -21 61 -21 -16 l0 -66 -37 6 c-21 4 -46 17 -56 28 l-18
21 -6 -21 c-3 -12 -9 -22 -13 -22 -10 0 -22 70 -22 132 -1 58 -18 51 -44 -18
-11 -30 -23 -44 -35 -44 -23 0 -23 1 1 74 11 33 20 63 20 69 0 22 -31 -18 -41
-54 -13 -40 -39 -61 -39 -31 0 10 4 22 9 27 5 6 18 36 29 68 24 67 5 62 -22
-5 -10 -24 -22 -51 -27 -60 -5 -10 -9 -24 -9 -32 0 -7 -7 -19 -15 -26 -8 -6
-21 -35 -29 -64 -9 -29 -25 -63 -36 -76 -11 -13 -21 -32 -22 -44 -2 -30 -4
-38 -16 -69 -7 -16 -12 -34 -12 -40 0 -7 -11 -33 -24 -59 l-23 -47 29 6 c17 3
28 1 28 -6 0 -6 -5 -11 -11 -11 -6 0 -8 -7 -5 -16 4 -10 -11 -40 -39 -80 -25
-36 -45 -68 -45 -72 0 -5 -18 -26 -40 -47 -22 -21 -40 -46 -40 -55 -1 -22 -66
-89 -95 -96 -29 -7 -24 -24 8 -25 12 0 16 -3 10 -6 -18 -7 -16 -23 2 -23 23 0
18 -28 -7 -41 -13 -7 -47 -12 -75 -11 -29 1 -53 -3 -53 -8 0 -6 9 -10 21 -10
22 0 89 -46 89 -61 0 -5 -12 -9 -27 -9 -35 0 -58 -14 -49 -29 4 -6 19 -11 34
-11 26 -1 26 -1 7 -16 -11 -8 -32 -14 -47 -11 -22 3 -28 -1 -28 -14 0 -12 -9
-19 -28 -21 -42 -5 -33 -18 35 -52 35 -17 63 -35 63 -39 0 -11 -81 -47 -107
-47 -13 0 -23 -4 -23 -10 0 -6 25 -8 60 -6 45 2 60 0 60 -10 0 -9 -12 -14 -35
-14 -19 0 -46 -5 -60 -12 -21 -9 -31 -9 -46 0 -26 17 -60 15 -87 -4 -22 -15
-24 -14 -43 7 -15 18 -17 25 -7 28 7 2 20 10 29 18 9 8 30 18 45 22 28 8 27 9
-19 16 -26 4 -50 11 -53 16 -10 16 5 44 35 64 l30 19 -30 14 c-35 17 -38 39
-6 52 15 6 17 9 6 9 -28 1 -29 28 -4 55 17 19 35 26 62 27 l38 1 -32 9 c-18 5
-33 14 -33 19 0 5 -18 30 -40 55 -22 25 -40 50 -40 54 0 12 64 41 90 41 11 0
18 5 15 10 -3 5 -22 10 -41 10 -38 0 -74 15 -74 30 0 6 16 10 36 10 31 0 35 2
24 15 -6 8 -9 18 -6 24 3 5 2 21 -3 34 -9 23 -13 24 -48 17 -20 -5 -39 -7 -41
-5 -3 2 7 48 21 102 27 102 33 194 25 393 -4 122 -1 245 8 290 6 34 7 34 15
11 6 -14 7 -31 5 -38 -3 -7 1 -27 9 -45 14 -33 14 -32 15 37 0 86 21 161 44
159 15 -2 23 15 30 59 1 9 5 20 9 23 4 4 7 18 7 31 0 13 4 23 9 23 5 0 11 10
13 23 2 16 11 23 30 25 22 3 29 10 34 38 5 28 10 33 25 29 15 -5 22 3 36 34
10 23 26 44 35 47 10 3 18 11 18 19 0 7 17 27 37 44 29 24 33 31 19 31 -17 0
-69 -35 -146 -98 -14 -11 -47 -38 -74 -59 -72 -57 -178 -161 -219 -217 -42
-56 -45 -52 -17 24 11 30 20 55 20 56 0 1 9 4 21 7 15 4 19 11 15 24 -3 10 3
31 14 48 11 17 25 39 32 50 15 22 67 75 75 75 3 0 0 -7 -7 -15 -20 -24 -4 -29
19 -6 12 12 24 21 29 21 4 0 21 15 38 33 16 18 56 50 87 71 60 40 70 52 37 41
-38 -12 -19 10 46 55 36 25 73 52 82 61 26 24 72 53 142 91 36 18 72 38 80 43
8 5 23 11 32 12 9 1 40 17 70 34 53 32 162 79 182 79 6 0 0 -6 -14 -13 -14 -8
-34 -18 -45 -24 -11 -6 -36 -17 -55 -26 -31 -13 -33 -16 -16 -23 13 -5 21 -3
24 4 2 7 8 12 14 12 10 0 53 18 123 51 60 29 99 38 119 27 12 -7 32 -2 73 17
34 15 60 22 66 16 5 -5 -5 -14 -27 -21 -20 -6 -36 -15 -36 -18 0 -4 -12 -15
-26 -25 -20 -15 -28 -16 -39 -7 -12 10 -18 10 -30 0 -21 -18 -9 -30 30 -30 21
0 35 6 39 16 4 11 14 15 31 12 14 -3 30 1 36 8 8 10 16 11 31 3 15 -8 27 -6
55 11 20 12 42 19 50 15 8 -3 27 4 43 15 15 11 39 20 52 21 12 0 39 6 58 13
49 19 50 19 50 -5z m-480 3 c0 -5 -11 -14 -25 -20 -31 -14 -33 1 -2 16 28 14
27 13 27 4z m240 -22 c0 -5 -6 -10 -14 -10 -8 0 -18 5 -21 10 -3 6 3 10 14 10
12 0 21 -4 21 -10z m1745 -11 c4 -5 -1 -9 -11 -9 -13 0 -14 -3 -4 -15 7 -8 18
-15 24 -15 23 0 67 -51 61 -71 -5 -13 -2 -19 10 -19 9 0 14 -4 11 -8 -3 -5 4
-16 14 -25 11 -9 17 -23 14 -31 -3 -8 9 -25 30 -41 42 -32 45 -45 12 -45 -24
0 -24 -1 -10 -30 9 -16 20 -30 25 -30 14 0 11 -68 -3 -74 -18 -7 20 -36 47
-36 18 0 20 -5 17 -40 -3 -29 -11 -46 -29 -58 -69 -49 -69 -48 -50 -66 9 -10
17 -24 17 -32 0 -9 11 -14 30 -14 31 0 37 -9 19 -27 -7 -7 8 -12 51 -17 56 -6
61 -9 58 -29 -2 -15 -11 -23 -28 -25 -62 -6 -90 -14 -90 -23 0 -5 6 -9 13 -8
6 1 19 1 27 0 13 -1 13 -2 0 -12 -10 -7 -11 -12 -4 -15 7 -3 10 -13 7 -22 -2
-9 5 -27 16 -39 26 -27 26 -33 4 -33 -10 -1 -29 -7 -43 -15 l-25 -13 28 -11
c16 -6 35 -11 43 -11 8 0 14 -4 14 -10 0 -5 -4 -10 -10 -10 -5 0 -10 -25 -10
-55 0 -42 3 -55 15 -55 8 0 15 7 15 15 0 8 4 15 9 15 23 0 41 -14 41 -30 0
-14 -11 -20 -41 -25 -34 -6 -51 -2 -95 20 -30 15 -54 34 -54 41 0 8 -7 14 -15
14 -17 0 -34 36 -42 90 -4 27 -22 51 -74 101 -37 37 -71 79 -75 93 -5 21 -16
29 -50 38 -28 8 -44 18 -44 28 0 13 -1 13 -10 0 -8 -13 -13 -13 -31 -2 -13 8
-24 10 -28 5 -3 -6 -15 -15 -26 -21 -17 -10 -15 -11 20 -12 35 0 79 -19 95
-41 3 -4 14 -8 25 -10 14 -3 21 -13 23 -36 3 -26 10 -34 43 -47 21 -9 39 -21
39 -28 0 -6 7 -19 16 -29 22 -24 10 -59 -21 -59 -39 0 -75 18 -84 43 -5 12
-16 29 -25 36 -14 11 -16 11 -16 -3 0 -10 -7 -15 -21 -13 -33 3 -32 -16 1 -38
16 -11 30 -25 30 -31 0 -7 9 -14 19 -17 16 -4 19 -14 19 -61 l-1 -56 -38 44
c-24 27 -56 50 -86 61 -26 10 -52 24 -56 32 -4 7 -22 13 -40 13 -81 0 -158 45
-193 112 -19 36 -19 35 21 54 19 9 35 21 35 26 0 6 -16 8 -35 6 -41 -5 -46 7
-10 24 27 12 31 23 15 33 -6 4 -8 11 -4 16 3 6 -2 17 -12 24 -17 13 -17 14 -2
15 13 0 17 9 17 38 0 20 -6 50 -11 65 -9 23 -8 31 3 38 11 6 11 11 2 20 -7 7
-9 24 -7 39 4 17 0 32 -9 42 -8 8 -17 23 -19 34 -5 18 -5 18 -12 -1 -4 -11
-12 -29 -18 -39 -13 -25 -16 -52 -19 -156 -3 -181 -60 -283 -167 -297 -32 -4
-40 -2 -46 13 -4 11 -3 20 3 22 6 2 11 13 11 25 0 12 7 35 15 51 18 34 12 62
-15 69 -23 6 -63 80 -50 93 16 16 0 83 -22 90 -11 3 -17 12 -14 19 2 7 -2 21
-9 32 -8 10 -15 28 -15 39 0 12 -7 27 -15 34 -12 10 -13 16 -4 26 9 11 8 18
-2 30 -10 13 -10 17 2 25 8 5 20 9 27 9 6 0 12 5 12 11 0 7 -9 9 -24 5 -19 -5
-34 6 -88 62 -35 37 -78 78 -94 92 l-29 25 70 5 c52 4 71 2 73 -8 3 -10 35
-11 148 -6 79 4 144 3 144 -1 0 -5 -6 -16 -14 -24 -18 -21 -45 -147 -35 -163
7 -10 9 -9 9 5 0 9 7 17 17 17 14 0 15 -11 10 -93 -4 -52 -2 -99 3 -107 11
-18 12 -14 11 65 -1 33 3 67 9 75 7 11 10 -13 11 -80 1 -113 16 -181 18 -81 1
90 21 191 38 191 7 0 13 11 13 25 0 16 12 34 35 52 67 53 68 105 2 140 -38 20
-213 29 -301 15 -54 -9 -81 2 -31 13 14 3 37 8 53 11 15 3 71 8 124 9 137 4
204 -16 236 -72 15 -28 15 -50 0 -55 -12 -4 -20 -118 -8 -118 15 0 32 30 26
45 -4 10 2 19 18 25 26 9 66 55 66 75 0 15 -43 45 -64 45 -12 0 -14 7 -9 33 3
17 11 35 17 39 18 13 36 9 36 -7 0 -18 17 -20 23 -2 3 10 9 10 26 0 11 -7 30
-13 40 -13 11 0 23 -5 26 -10 4 -6 15 -8 25 -5 11 3 20 0 24 -10 3 -8 12 -15
21 -15 8 0 15 -7 15 -15 0 -14 52 -22 100 -15 24 3 23 6 -14 46 -20 22 -34 43
-33 49 6 17 83 30 92 14z m-881 -27 c9 -14 -35 -21 -169 -28 -98 -5 -118 -4
-108 7 7 7 32 15 55 18 80 11 216 13 222 3z m1046 -153 c0 -5 -4 -9 -10 -9 -5
0 -10 7 -10 16 0 8 5 12 10 9 6 -3 10 -10 10 -16z m-795 1 c3 -5 -1 -10 -10
-10 -9 0 -13 5 -10 10 3 6 8 10 10 10 2 0 7 -4 10 -10z m-2165 -245 c-17 -20
-80 -58 -86 -52 -3 3 9 15 25 27 17 12 31 18 31 15 0 -4 7 1 16 9 20 20 30 21
14 1z m-120 -95 c0 -5 -4 -10 -10 -10 -5 0 -10 5 -10 10 0 6 5 10 10 10 6 0
10 -4 10 -10z m-230 -377 c0 -5 -5 -15 -10 -23 -8 -12 -10 -11 -10 8 0 12 5
22 10 22 6 0 10 -3 10 -7z m2620 -21 c21 -17 21 -19 4 -32 -13 -12 -18 -12
-22 -2 -3 9 -14 11 -38 6 -38 -7 -42 0 -17 28 20 23 45 23 73 0z m542 -91 c12
-17 49 -38 193 -109 72 -36 168 -68 230 -77 25 -4 48 -11 51 -16 14 -23 -257
5 -308 32 -13 7 -27 18 -31 26 -6 9 -17 13 -32 9 -19 -5 -32 4 -68 44 -44 49
-67 62 -67 38 0 -6 -3 -9 -6 -6 -8 8 7 78 17 78 4 0 14 -8 21 -19z m-1607 -51
c3 -5 1 -10 -4 -10 -6 0 -11 5 -11 10 0 6 2 10 4 10 3 0 8 -4 11 -10z m965
-90 c0 -5 -9 -14 -20 -20 -11 -6 -18 -15 -15 -19 2 -5 -2 -14 -11 -21 -13 -12
-14 -10 -10 14 3 15 10 34 17 42 13 16 39 19 39 4z m27 -42 c-3 -8 -6 -5 -6 6
-1 11 2 17 5 13 3 -3 4 -12 1 -19z m-18 -48 c-6 -16 -15 -30 -20 -30 -9 0 -1
28 14 48 15 19 17 14 6 -18z m878 -5 c20 -4 41 -18 54 -36 11 -16 27 -29 35
-29 8 0 14 -7 14 -15 0 -8 -6 -15 -14 -15 -24 0 -28 -18 -12 -42 24 -34 20
-58 -8 -58 -22 0 -24 -4 -21 -37 1 -21 -2 -41 -9 -46 -7 -5 -3 -14 14 -27 14
-11 19 -20 13 -20 -26 0 -44 -48 -47 -124 -1 -56 -7 -80 -20 -95 -10 -11 -20
-36 -22 -56 -1 -19 -9 -49 -18 -66 -9 -18 -16 -37 -16 -44 0 -16 -35 -55 -49
-55 -7 0 -24 -12 -39 -27 -23 -24 -37 -28 -98 -31 -67 -4 -72 -3 -92 23 -12
15 -22 34 -22 41 0 7 -9 16 -20 19 -11 3 -22 16 -25 28 -12 60 -22 135 -21
165 1 28 4 32 29 32 16 0 39 -11 57 -29 30 -28 39 -51 21 -51 -5 0 -11 -8 -13
-17 -4 -20 17 -121 27 -131 14 -14 87 -6 98 10 7 9 19 26 27 38 8 12 23 32 32
45 21 27 27 94 32 337 2 130 7 192 16 203 7 8 10 21 7 29 -3 8 1 20 9 26 8 7
14 26 14 42 0 23 4 28 18 24 9 -2 32 -7 49 -11z m-1817 -9 c0 -3 -4 -8 -10
-11 -5 -3 -10 -1 -10 4 0 6 5 11 10 11 6 0 10 -2 10 -4z m1725 -6 c3 -5 -1
-10 -9 -10 -9 0 -16 5 -16 10 0 6 4 10 9 10 6 0 13 -4 16 -10z m-841 -84 c-6
-16 -34 -30 -34 -18 0 10 22 32 32 32 4 0 5 -6 2 -14z m-979 -46 c3 -5 1 -10
-4 -10 -6 0 -11 5 -11 10 0 6 2 10 4 10 3 0 8 -4 11 -10z m892 -42 c-3 -8 -6
-5 -6 6 -1 11 2 17 5 13 3 -3 4 -12 1 -19z m226 -40 c-1 -25 2 -27 40 -30 27
-2 41 -7 40 -15 -2 -7 6 -13 17 -13 32 0 27 -51 -7 -72 -26 -16 -27 -17 -6
-18 15 0 21 -5 17 -14 -4 -11 0 -13 15 -9 39 10 20 -41 -24 -65 -15 -9 -16
-11 -4 -12 8 0 20 5 27 12 6 6 15 8 19 4 4 -4 0 -12 -10 -17 -21 -12 -23 -33
-2 -25 18 7 20 -5 3 -22 -9 -9 -8 -12 5 -12 26 0 23 -50 -3 -57 -13 -3 -20
-14 -20 -29 0 -17 4 -22 15 -18 19 7 19 -3 2 -21 -19 -18 -97 -55 -119 -55
-21 0 -24 20 -6 38 9 9 2 12 -35 12 -40 0 -47 3 -47 19 0 11 -6 22 -12 24 -8
4 -4 8 9 12 12 4 48 20 80 36 56 28 57 29 20 25 -35 -4 -36 -3 -26 15 10 20 9
20 -44 14 -44 -6 -55 -4 -60 8 -7 18 25 41 71 51 17 4 35 12 38 18 4 6 -1 8
-12 5 -52 -14 -73 -16 -78 -8 -4 5 10 15 29 21 43 14 47 32 5 24 -19 -4 -30
-2 -30 5 0 6 9 11 20 11 11 0 20 6 20 14 0 8 7 16 15 20 20 7 19 45 0 52 -15
6 -14 45 1 92 8 25 39 8 37 -20z m-193 -15 c-11 -39 -29 -80 -29 -70 -2 19 22
97 29 97 5 0 5 -12 0 -27z m-85 -114 c-15 -29 -45 -40 -45 -17 0 17 41 58 51
52 5 -3 2 -18 -6 -35z m-1145 -9 c0 -5 -2 -10 -4 -10 -3 0 -8 5 -11 10 -3 6
-1 10 4 10 6 0 11 -4 11 -10z m503 -74 c17 -87 22 -307 8 -356 -4 -14 -2 -49
5 -78 7 -33 9 -67 4 -85 -5 -18 -11 -68 -15 -112 -4 -52 -13 -92 -27 -117 -19
-34 -20 -40 -8 -65 8 -16 16 -32 18 -37 4 -8 -94 -4 -273 10 -38 3 -116 1
-172 -3 l-103 -9 -5 36 c-3 19 -18 73 -32 120 -15 47 -26 91 -25 97 2 7 -2 22
-8 34 -7 13 -12 73 -12 151 1 149 0 149 98 249 23 23 41 49 60 88 11 21 42 51
54 51 6 0 10 5 10 10 0 6 5 10 11 10 6 0 23 9 38 19 34 24 109 40 233 50 54 4
100 10 104 14 16 15 22 4 37 -77z m-613 64 c0 -5 -7 -10 -15 -10 -8 0 -15 5
-15 10 0 6 7 10 15 10 8 0 15 -4 15 -10z m-70 -4 c0 -2 -7 -6 -15 -10 -8 -3
-15 -1 -15 4 0 6 7 10 15 10 8 0 15 -2 15 -4z m-110 -56 c0 -5 -2 -10 -4 -10
-3 0 -8 5 -11 10 -3 6 -1 10 4 10 6 0 11 -4 11 -10z m-30 -10 c0 -5 -6 -10
-14 -10 -7 0 -19 -7 -26 -15 -13 -16 -30 -20 -30 -7 0 5 15 16 33 25 40 19 37
19 37 7z m270 -24 c0 -8 -9 -18 -20 -21 -17 -6 -20 -12 -14 -41 5 -30 3 -35
-21 -44 -14 -5 -42 -10 -61 -10 -22 0 -33 -4 -29 -10 4 -6 15 -8 26 -5 22 7
23 2 9 -26 -6 -10 -18 -19 -28 -19 -9 0 -24 -5 -32 -11 -11 -7 -6 -9 20 -7 38
3 38 2 22 -65 -11 -40 -28 -67 -44 -67 -5 0 -8 6 -6 14 3 14 0 16 -20 16 -5 0
-14 -11 -20 -25 -10 -22 -18 -25 -62 -25 -34 0 -52 5 -56 14 -3 8 -25 17 -50
21 -62 9 -55 22 13 24 59 1 90 11 35 11 -17 0 -34 5 -37 10 -4 6 5 10 20 10
18 0 29 6 32 20 3 10 13 21 22 24 119 30 115 29 91 38 -13 5 -29 7 -36 4 -18
-7 -25 5 -12 21 9 11 7 15 -10 20 -21 5 -30 22 -14 24 6 1 58 4 128 8 29 1 64
34 64 59 0 15 9 21 35 26 19 4 35 11 35 16 0 6 5 10 10 10 6 0 10 -6 10 -14z
m1215 -123 c17 -34 36 -68 42 -75 6 -7 16 -53 22 -102 7 -49 16 -97 21 -107 5
-9 14 -57 20 -105 5 -49 10 -93 11 -99 1 -5 -2 -44 -6 -86 -6 -63 -5 -78 9
-91 9 -9 16 -19 16 -22 0 -12 -46 -5 -64 9 -28 21 -95 19 -132 -4 -18 -11 -47
-21 -65 -23 -32 -3 -34 -2 -31 28 2 16 -4 50 -12 75 -16 47 -22 197 -10 284 3
28 14 68 24 90 10 22 21 69 24 105 8 75 61 192 85 188 8 -2 29 -31 46 -65z
m-2338 -95 c-3 -8 -6 -5 -6 6 -1 11 2 17 5 13 3 -3 4 -12 1 -19z m2708 -48 c3
-5 15 -10 26 -10 27 0 24 -27 -8 -54 -23 -20 -25 -26 -14 -40 7 -8 23 -15 35
-14 11 0 34 -6 49 -15 27 -14 27 -16 10 -26 -17 -10 -17 -12 7 -30 21 -17 23
-23 13 -40 -9 -14 -9 -21 -1 -23 17 -6 -22 -47 -59 -63 -43 -18 -42 -31 2 -33
37 -1 75 -17 75 -31 0 -10 -100 -51 -127 -51 -12 0 -23 -5 -25 -11 -3 -9 -18
-9 -53 -3 -65 12 -71 35 -16 58 31 12 39 20 34 32 -4 11 1 22 13 31 18 14 17
14 -11 12 -17 -2 -45 6 -64 18 l-34 21 52 22 c55 24 58 39 8 41 -21 1 -25 3
-12 6 37 9 37 20 -2 28 -21 4 -41 9 -46 12 -11 7 13 33 40 44 24 9 32 31 11
28 -7 -1 -31 -1 -53 0 l-40 2 30 22 c16 12 38 31 49 41 17 17 57 32 93 35 6 1
15 -3 18 -9z m-2150 -63 c8 -13 19 -44 25 -70 5 -26 15 -68 20 -94 6 -27 10
-112 8 -190 l-3 -143 -55 0 c-30 0 -75 -5 -99 -11 -49 -11 -60 -7 -41 16 12
14 11 22 -7 124 -7 44 12 130 48 212 16 36 29 81 29 100 0 38 23 79 45 79 8 0
21 -10 30 -23z m1511 8 c-3 -8 0 -15 6 -15 8 0 9 -3 2 -10 -6 -6 -40 -13 -75
-16 -35 -3 -61 -2 -56 2 6 7 26 11 65 13 7 1 20 10 29 21 20 24 38 26 29 5z
m-151 -36 c16 -6 14 -8 -13 -8 -18 -1 -40 6 -49 14 -14 14 -13 15 13 9 16 -4
38 -11 49 -15z m-996 -18 c11 -6 18 -23 19 -44 1 -31 -3 -36 -37 -52 -38 -16
-105 -25 -116 -13 -11 11 8 38 26 38 10 0 19 5 19 10 0 6 -16 10 -36 10 -45 0
-37 13 18 29 24 7 50 17 58 21 20 12 28 12 49 1z m827 -49 c-8 -8 -12 -1 -20
33 l-6 30 16 -28 c8 -16 13 -31 10 -35z m312 27 c11 -9 18 -27 16 -40 -1 -13
-3 -36 -3 -52 -1 -19 -8 -30 -23 -36 -13 -5 -32 -18 -42 -30 -16 -18 -17 -21
-3 -21 9 0 19 5 22 10 11 18 27 10 22 -10 -3 -13 1 -24 14 -30 23 -13 25 -30
4 -30 -10 0 -15 -10 -15 -29 0 -17 -5 -33 -11 -36 -6 -4 -66 -6 -134 -6 -112
2 -126 0 -144 -18 -12 -12 -21 -15 -24 -8 -5 17 25 47 50 47 20 0 21 3 12 32
-6 22 -5 34 2 39 8 4 4 11 -10 18 -25 14 -28 31 -5 31 14 0 14 3 4 15 -11 13
-8 15 21 15 47 0 77 10 83 26 9 24 -5 45 -35 51 -34 6 -42 43 -10 43 11 0 26
6 33 13 19 20 31 22 98 22 40 0 66 -6 78 -16z m-1233 -129 c8 -13 -5 -13 -25
0 -13 8 -13 10 2 10 9 0 20 -4 23 -10z m123 -9 c10 -1 10 -6 2 -21 -6 -11 -16
-19 -22 -17 -17 3 -22 -34 -7 -44 11 -6 10 -11 -6 -23 -19 -14 -16 -15 34 -16
46 0 52 -2 41 -15 -6 -8 -9 -18 -6 -24 7 -10 -42 -20 -118 -23 -44 -2 -51 -5
-68 -35 -11 -18 -22 -33 -24 -33 -2 0 -4 16 -4 35 0 29 4 36 25 41 41 10 28
23 -27 26 -28 2 -53 8 -55 14 -5 15 30 24 51 12 10 -6 20 -5 28 2 7 6 22 17
33 25 19 14 19 14 -5 15 -32 0 -70 11 -70 19 0 6 39 25 77 35 11 4 24 13 27
21 4 10 17 13 43 11 21 -3 44 -5 51 -5z m1951 -193 c12 -30 1 -40 -39 -36
l-32 3 22 28 c26 33 38 34 49 5z m-129 -34 c0 -21 -38 -17 -50 5 -8 16 -6 20
8 23 21 5 42 -9 42 -28z m-2695 -36 c-18 -11 -55 7 -55 27 0 23 24 24 48 2 19
-18 20 -22 7 -29z m825 11 c0 -10 -10 -19 -25 -21 -29 -6 -45 9 -20 18 9 4 14
12 11 20 -6 16 16 25 26 10 4 -6 8 -18 8 -27z m963 21 c7 -26 -6 -33 -43 -25
-26 6 -28 9 -20 26 14 26 56 25 63 -1z m125 -11 c3 -22 -2 -27 -25 -32 -15 -3
-29 -4 -31 -3 -1 2 1 17 4 35 5 25 11 31 28 29 14 -2 22 -11 24 -29z m126 15
c10 -26 7 -34 -13 -34 -23 0 -35 15 -27 35 7 20 32 19 40 -1z m556 7 c0 -6 -5
-13 -10 -16 -15 -9 -43 3 -35 15 8 13 45 13 45 1z m-938 -19 c-5 -15 -34 -12
-39 3 -2 6 8 10 21 10 15 0 22 -5 18 -13z m-1532 -7 c0 -10 -11 -15 -35 -15
-40 0 -45 7 -12 20 33 13 47 12 47 -5z m848 -2 c-2 -13 -14 -19 -41 -21 -39
-3 -40 -3 -31 22 4 10 18 16 41 16 27 0 34 -4 31 -17z m-698 -3 c0 -5 -22 -10
-50 -10 -27 0 -50 5 -50 10 0 6 23 10 50 10 28 0 50 -4 50 -10z m-75 -100 c-8
-13 -55 -13 -75 0 -11 7 -2 10 33 10 30 0 46 -4 42 -10z"/>
<path d="M1506 3324 c-11 -8 -16 -14 -10 -14 13 0 39 18 34 24 -3 2 -14 -2
-24 -10z"/>
<path d="M1260 3303 c-16 -7 -40 -28 -40 -36 0 -3 14 0 30 6 17 6 30 17 30 24
0 7 -1 13 -2 12 -2 0 -10 -3 -18 -6z"/>
<path d="M1150 3240 c0 -5 7 -10 15 -10 8 0 15 5 15 10 0 6 -7 10 -15 10 -8 0
-15 -4 -15 -10z"/>
<path d="M1075 3200 c-3 -5 -1 -10 4 -10 6 0 11 5 11 10 0 6 -2 10 -4 10 -3 0
-8 -4 -11 -10z"/>
<path d="M1370 2409 c0 -18 2 -19 15 -9 8 7 15 16 15 21 0 5 -7 9 -15 9 -9 0
-15 -9 -15 -21z"/>
<path d="M2072 2358 c2 -12 8 -23 14 -25 7 -2 10 6 7 22 -6 30 -26 34 -21 3z"/>
<path d="M2091 2268 c1 -18 5 -44 9 -58 6 -20 8 -14 9 27 1 28 -3 55 -9 58 -6
4 -10 -7 -9 -27z"/>
<path d="M572 2242 c-14 -31 -16 -59 -3 -67 9 -5 13 4 25 57 8 36 -6 43 -22
10z"/>
<path d="M2110 2141 c0 -11 4 -22 9 -25 5 -3 9 6 9 19 0 14 -4 25 -9 25 -5 0
-9 -9 -9 -19z"/>
<path d="M560 2142 c0 -7 -9 -12 -19 -12 -17 0 -19 -5 -14 -37 9 -57 21 -83
35 -78 14 6 19 118 6 131 -5 4 -8 2 -8 -4z"/>
<path d="M2110 2080 c0 -5 4 -10 10 -10 11 0 34 -79 26 -88 -7 -7 23 -42 36
-42 13 0 -1 61 -17 80 -8 8 -18 27 -24 43 -10 26 -31 38 -31 17z"/>
<path d="M535 1980 c-4 -6 1 -18 11 -25 27 -20 36 -18 32 7 -3 25 -32 36 -43
18z"/>
<path d="M2672 1908 c-18 -18 -14 -38 7 -38 13 0 19 7 19 25 0 28 -8 31 -26
13z"/>
<path d="M2218 1903 c-27 -7 -22 -17 14 -31 35 -13 53 -6 25 9 -9 6 -15 14
-12 20 6 9 2 10 -27 2z"/>
<path d="M540 1889 c0 -8 9 -20 20 -27 11 -7 20 -8 20 -4 0 5 -9 17 -20 27
-15 14 -20 15 -20 4z"/>
<path d="M560 1807 c-17 -9 -25 -21 -25 -40 -1 -16 -7 -32 -14 -37 -9 -5 0 -7
25 -7 43 2 65 29 56 72 -5 29 -8 29 -42 12z"/>
<path d="M2282 1748 c3 -7 19 -13 36 -14 34 -2 43 10 16 20 -27 10 -56 7 -52
-6z"/>
<path d="M525 1690 c3 -5 16 -10 27 -10 26 0 16 13 -13 17 -12 2 -18 -1 -14
-7z"/>
<path d="M947 1676 c-10 -8 -15 -20 -11 -30 8 -20 20 -21 28 -1 3 8 12 15 19
15 8 0 20 7 27 15 11 13 8 15 -16 15 -16 0 -37 -7 -47 -14z"/>
<path d="M2897 3088 c8 -46 13 -48 13 -5 0 21 -4 37 -10 37 -5 0 -7 -14 -3
-32z"/>
<path d="M3520 3091 c0 -5 7 -14 15 -21 22 -18 18 -38 -7 -42 -16 -2 -22 -9
-20 -21 2 -10 -2 -25 -8 -32 -8 -9 -8 -19 -1 -32 5 -10 12 -26 15 -35 3 -10
10 -18 15 -18 5 0 17 8 27 18 10 9 33 17 52 17 20 0 37 5 39 12 2 6 -14 30
-37 53 -38 38 -40 43 -24 55 16 11 14 14 -24 34 -23 12 -42 17 -42 12z"/>
<path d="M2901 2865 c-1 -58 8 -97 20 -90 4 3 6 12 2 20 -3 9 -9 39 -13 68
l-8 52 -1 -50z"/>
<path d="M3140 2860 c0 -6 7 -10 15 -10 8 0 15 2 15 4 0 2 -7 6 -15 10 -8 3
-15 1 -15 -4z"/>
<path d="M3110 2591 c0 -5 5 -13 10 -16 6 -3 10 -2 10 4 0 5 -4 13 -10 16 -5
3 -10 2 -10 -4z"/>
<path d="M3376 2535 c-3 -8 -3 -15 0 -15 3 0 12 7 20 15 13 13 13 15 1 15 -8
0 -17 -7 -21 -15z"/>
<path d="M3890 2340 c0 -5 5 -10 10 -10 6 0 10 5 10 10 0 6 -4 10 -10 10 -5 0
-10 -4 -10 -10z"/>
<path d="M2820 836 c0 -2 11 -6 25 -8 14 -3 25 -1 25 3 0 5 -11 9 -25 9 -14 0
-25 -2 -25 -4z"/>
</g>
</svg>
