<?xml version="1.0" standalone="no"?>
<!DOCTYPE svg PUBLIC "-//W3C//DTD SVG 20010904//EN"
 "http://www.w3.org/TR/2001/REC-SVG-20010904/DTD/svg10.dtd">
<svg version="1.0" xmlns="http://www.w3.org/2000/svg"
 width="1500.000000pt" height="1056.000000pt" viewBox="0 0 1500.000000 1056.000000"
 preserveAspectRatio="xMidYMid meet">

<g transform="translate(0.000000,1056.000000) scale(0.100000,-0.100000)"
fill="#000000" stroke="none">
<path d="M7341 10459 c-184 -36 -382 -184 -475 -355 -57 -103 -82 -132 -124
-143 -20 -6 -131 -15 -247 -20 -260 -12 -282 -19 -373 -110 -79 -78 -176 -210
-222 -301 -18 -36 -40 -73 -49 -84 -21 -24 -90 -58 -176 -86 -123 -40 -227
-99 -331 -186 -40 -34 -54 -40 -64 -31 -10 10 -11 8 -6 -8 4 -15 -6 -37 -35
-75 -77 -103 -101 -164 -153 -400 -64 -286 -128 -716 -166 -1115 -6 -60 -15
-148 -20 -195 -30 -264 -50 -701 -50 -1107 0 -232 -3 -428 -6 -437 -3 -9 -12
-16 -19 -16 -27 0 -47 -58 -100 -278 -85 -359 -94 -421 -121 -812 -14 -211
-15 -280 -5 -500 27 -578 110 -1085 243 -1475 213 -631 230 -685 243 -773 13
-89 23 -241 45 -682 13 -248 23 -325 51 -384 37 -75 95 -80 124 -9 9 21 31
126 50 234 35 197 54 265 100 344 29 48 32 105 11 175 -24 80 5 107 88 83 109
-32 97 2 -60 170 -68 72 -153 175 -188 227 -242 358 -429 914 -516 1535 -55
398 -67 835 -30 1155 59 521 105 707 213 870 61 91 97 166 97 202 0 14 -11 40
-26 57 -22 27 -26 44 -36 158 -22 266 6 1398 43 1748 41 389 127 769 235 1032
87 210 162 281 335 317 78 16 108 9 135 -32 47 -69 54 -254 61 -1571 l6 -1134
-24 -19 c-117 -94 -134 -103 -432 -241 -37 -17 -75 -39 -84 -49 -41 -45 35
-68 77 -23 28 29 90 35 111 9 11 -13 3 -24 -55 -78 -53 -50 -67 -69 -64 -87 5
-36 45 -36 116 0 92 46 294 185 333 228 32 36 38 38 80 35 41 -3 53 1 121 47
155 106 421 194 524 175 71 -13 58 -48 -82 -206 -105 -119 -144 -173 -144
-200 0 -17 5 -19 28 -13 56 14 162 93 355 267 124 111 209 171 316 223 126 62
196 79 328 79 134 1 158 -11 184 -90 11 -36 21 -50 37 -52 12 -2 70 12 129 32
125 40 184 51 343 66 229 20 468 7 538 -30 74 -39 168 -142 216 -238 61 -120
70 -182 70 -467 0 -354 -16 -453 -109 -675 -29 -69 -61 -152 -71 -185 -21 -70
-27 -75 -68 -68 -26 4 -35 0 -53 -26 -19 -25 -42 -36 -140 -66 -227 -70 -469
-205 -707 -395 -157 -125 -460 -423 -566 -557 -36 -45 -121 -135 -189 -200
-335 -318 -465 -456 -552 -584 -45 -66 -81 -161 -77 -199 3 -22 12 -13 73 66
39 50 99 131 135 180 84 116 199 244 239 267 28 16 32 17 37 2 8 -19 -2 -43
-88 -225 -102 -214 -118 -277 -75 -304 26 -17 50 4 62 55 8 33 18 47 39 57 24
12 27 18 22 47 -5 23 -2 36 10 46 28 23 100 131 149 224 67 126 123 216 238
390 106 160 166 234 311 385 117 122 190 207 209 245 12 24 22 30 51 31 24 0
51 12 79 32 132 100 311 202 380 218 24 5 27 3 27 -19 0 -13 -24 -89 -54 -168
-135 -358 -177 -492 -158 -511 6 -6 16 -7 22 -3 25 16 111 160 206 345 79 155
133 230 165 230 16 0 29 -65 35 -185 3 -71 7 -131 8 -132 4 -4 216 434 216
445 0 12 80 187 127 277 56 108 138 230 188 280 38 39 48 44 65 35 11 -6 22
-25 25 -48 12 -73 16 -84 40 -108 38 -38 97 -34 141 10 30 30 34 40 34 84 0
28 -24 146 -55 266 -93 368 -93 420 0 707 34 104 57 192 57 221 1 44 5 51 30
64 29 15 68 71 138 195 46 81 174 217 258 273 104 68 176 90 270 83 168 -13
229 -51 292 -181 96 -199 95 -317 -10 -1006 -114 -750 -124 -827 -175 -1365
-38 -395 -75 -587 -143 -735 -11 -25 -41 -92 -67 -150 -92 -210 -319 -631
-354 -660 -3 -3 -22 -25 -41 -50 -42 -55 -143 -162 -270 -290 -338 -337 -709
-621 -851 -651 -84 -18 -174 -69 -149 -84 6 -4 25 -1 44 5 85 28 116 -42 49
-109 -48 -47 -104 -81 -273 -163 -153 -74 -186 -97 -177 -122 6 -14 15 -16 59
-9 29 4 85 8 124 8 83 0 108 -15 118 -71 10 -49 33 -58 120 -43 83 14 98 11
122 -27 24 -36 90 -264 104 -360 15 -103 31 -155 52 -168 28 -17 82 44 119
133 49 117 69 232 79 451 15 315 57 438 206 615 101 119 132 166 152 227 14
42 23 53 47 61 40 13 88 59 138 132 51 76 104 141 190 234 38 41 77 91 87 110
10 20 47 70 82 111 111 132 190 266 313 535 81 177 156 399 189 565 38 190 87
525 105 730 6 63 18 185 26 270 8 85 20 216 25 290 20 265 103 819 187 1240
18 93 27 169 27 245 1 105 -1 114 -31 176 -44 88 -144 194 -198 208 -22 6
-119 11 -215 11 -260 0 -338 -22 -514 -143 -94 -65 -224 -177 -225 -194 -1 -7
-32 -59 -69 -115 -62 -93 -98 -163 -191 -370 -16 -38 -34 -68 -40 -68 -26 0
-53 217 -76 615 -41 719 -80 1312 -100 1500 -8 77 -31 311 -50 520 -72 770
-143 1034 -324 1216 -138 139 -215 149 -426 55 -125 -56 -162 -47 -176 43 -10
65 -70 169 -139 243 -40 43 -51 50 -59 38 -8 -11 -18 -5 -53 32 -35 37 -53 48
-96 57 -61 13 -127 13 -191 0z m156 -130 c125 -22 219 -116 250 -249 23 -97
22 -420 -2 -965 -9 -214 -17 -545 -17 -735 0 -298 3 -367 22 -505 39 -288 38
-855 -2 -1012 -7 -30 -16 -43 -28 -43 -10 0 -43 -15 -75 -34 -84 -51 -241 -83
-490 -101 -108 -8 -139 2 -143 43 -4 36 22 79 75 125 68 60 39 91 -109 122
-40 9 -73 17 -75 19 -5 4 -31 722 -44 1186 -16 586 -3 1241 32 1580 15 149 35
241 69 312 17 35 30 73 30 85 0 15 11 28 33 39 17 9 51 32 74 51 99 79 244
109 400 82z m871 -405 c107 -53 194 -197 237 -389 21 -97 51 -364 70 -630 10
-141 44 -498 60 -630 8 -66 20 -187 25 -270 12 -168 15 -992 4 -1114 l-6 -79
-62 -7 c-68 -7 -139 -35 -174 -68 -20 -18 -38 -23 -111 -25 -88 -4 -247 18
-295 40 -30 13 -37 34 -34 98 l3 45 -61 -3 c-52 -3 -65 -1 -81 17 -26 28 -42
83 -53 185 -15 127 -30 1923 -20 2266 10 321 15 355 71 436 93 135 293 195
427 128z m-1835 -124 c100 -50 159 -143 192 -299 33 -161 38 -268 41 -926 2
-434 8 -762 19 -958 23 -434 3 -708 -62 -845 -15 -32 -35 -58 -53 -67 -15 -8
-78 -19 -140 -25 -62 -6 -127 -17 -146 -25 -18 -7 -74 -52 -123 -98 -131 -124
-202 -145 -255 -74 -30 40 -34 149 -42 1102 -9 1102 7 1652 52 1875 36 174
137 306 273 357 58 21 186 13 244 -17z"/>
<path d="M7169 10195 c-33 -18 -42 -40 -24 -55 10 -9 19 -4 39 23 38 50 34 59
-15 32z"/>
<path d="M7410 8946 c-107 -25 -190 -76 -190 -118 0 -47 79 -23 191 59 105 75
105 82 -1 59z"/>
<path d="M7327 8750 c-98 -38 -104 -65 -13 -58 70 6 156 41 156 64 0 21 -84
17 -143 -6z"/>
<path d="M7293 7770 c-25 -10 -47 -46 -37 -61 3 -6 18 -8 33 -4 30 8 111 56
111 68 0 10 -80 8 -107 -3z"/>
<path d="M7343 7676 c-87 -21 -124 -56 -89 -85 17 -15 64 3 131 49 72 49 59
60 -42 36z"/>
<path d="M8238 9000 c-45 -14 -85 -41 -102 -71 -16 -26 -16 -30 -1 -35 8 -4
30 -1 48 6 57 23 157 84 154 95 -4 13 -64 16 -99 5z"/>
<path d="M8266 8865 c-61 -22 -111 -67 -111 -101 0 -27 3 -29 37 -28 27 1 52
12 92 42 58 44 78 78 55 93 -18 11 -27 11 -73 -6z"/>
<path d="M8233 7883 c-27 -18 -30 -48 -7 -57 47 -18 124 6 124 39 0 34 -78 46
-117 18z"/>
<path d="M8198 7764 c-53 -28 -24 -64 52 -64 75 0 147 47 109 71 -22 14 -131
10 -161 -7z"/>
<path d="M6386 8714 c-49 -18 -131 -83 -119 -95 12 -12 80 12 149 52 85 48 64
78 -30 43z"/>
<path d="M6405 8589 c-119 -38 -192 -98 -105 -86 56 7 174 67 178 90 4 21 2
21 -73 -4z"/>
<path d="M6352 7440 c-29 -18 -52 -54 -52 -81 0 -5 9 -18 20 -29 32 -32 101
-27 142 9 41 37 30 58 -20 40 -59 -20 -86 15 -37 47 54 35 4 49 -53 14z"/>
<path d="M5534 8116 c-81 -38 -184 -107 -184 -123 0 -17 3 -16 138 30 98 34
146 66 140 95 -5 25 -37 25 -94 -2z"/>
<path d="M5544 7991 c-59 -32 -166 -113 -159 -120 8 -8 139 40 201 73 41 22
60 38 62 54 3 18 -1 22 -25 22 -15 0 -51 -13 -79 -29z"/>
<path d="M5373 7246 c-70 -33 -71 -56 -3 -56 71 0 122 23 118 52 -4 33 -51 34
-115 4z"/>
<path d="M5384 7127 c-33 -29 -28 -62 8 -52 38 12 101 49 106 63 7 24 -84 15
-114 -11z"/>
<path d="M10060 6300 c-13 -24 4 -107 27 -132 36 -40 73 -15 73 50 0 35 -6 49
-29 73 -34 34 -56 37 -71 9z"/>
<path d="M7820 5721 c-265 -88 -716 -259 -821 -311 -30 -16 -74 -44 -98 -64
-31 -26 -49 -34 -65 -30 -80 20 -820 -372 -1058 -561 -54 -42 -74 -75 -45 -75
23 0 77 40 87 64 8 21 13 23 54 19 40 -5 54 -1 105 30 114 71 581 282 752 341
171 58 1184 559 1239 612 25 24 -25 16 -150 -25z"/>
<path d="M7929 5007 c-193 -111 -314 -190 -489 -324 -80 -60 -165 -123 -190
-138 -130 -82 -584 -433 -702 -544 -38 -35 -68 -72 -68 -82 0 -15 -7 -19 -35
-19 -41 0 -119 -37 -185 -87 -139 -106 -631 -588 -720 -707 -43 -57 -47 -68
-27 -84 19 -16 54 5 156 91 127 106 616 597 632 633 12 28 15 31 36 21 32 -14
66 3 175 89 47 38 141 112 208 164 125 97 220 190 220 216 0 10 7 13 23 9 47
-12 246 115 355 227 54 55 75 70 81 59 12 -18 33 -6 146 84 49 39 137 104 195
144 149 104 286 217 326 269 30 40 36 62 16 62 -4 0 -73 -38 -153 -83z"/>
<path d="M5134 4527 c-109 -36 -244 -133 -244 -175 0 -40 51 -55 97 -29 83 46
283 169 292 181 8 9 9 16 2 21 -22 13 -108 14 -147 2z"/>
<path d="M6577 2785 c-18 -18 -42 -84 -33 -92 9 -9 63 45 69 68 7 27 -17 44
-36 24z"/>
<path d="M6705 2053 c-60 -15 -208 -69 -259 -95 -117 -59 -281 -117 -374 -132
-103 -16 -122 -26 -122 -65 0 -69 73 -132 186 -162 142 -37 263 -5 505 132
137 79 269 210 269 269 0 46 -27 60 -111 59 -41 -1 -83 -4 -94 -6z"/>
<path d="M7380 1921 c-14 -3 -37 -14 -52 -24 -21 -14 -31 -16 -47 -8 -47 25
-56 -1 -13 -35 66 -52 228 -154 307 -195 75 -38 97 -44 162 -47 67 -4 80 -1
136 26 122 61 178 128 156 190 -12 35 -34 46 -131 66 -146 30 -446 46 -518 27z"/>
<path d="M5674 1525 c-25 -38 -12 -99 42 -205 l46 -91 -7 -83 c-6 -66 -4 -89
9 -114 50 -96 154 -78 223 39 26 44 93 75 236 109 174 40 189 52 173 133 -10
50 5 67 58 67 75 0 176 29 256 71 44 23 77 46 74 51 -7 11 -170 10 -276 -2
-48 -6 -144 -22 -215 -36 -168 -34 -215 -30 -405 36 -80 27 -158 50 -172 50
-16 0 -32 -9 -42 -25z"/>
</g>
</svg>
